<?xml version="1.0" encoding="UTF-8"?>
<svg version="1.1" xmlns="http://www.w3.org/2000/svg" width="1638" height="1638">
<path d="M0 0 C1.65791857 -0.00702126 3.31583686 -0.01410808 4.97375488 -0.02125549 C10.24292387 -0.04065769 15.51204889 -0.04568947 20.78125 -0.046875 C21.67859863 -0.04731686 22.57594727 -0.04775871 23.50048828 -0.04821396 C49.41712599 -0.0549088 75.22130625 0.03618838 101.00646973 2.94665527 C103.41468985 3.21816965 105.82393263 3.47904345 108.23339844 3.73925781 C187.89734214 12.44688808 266.07374861 32.04637719 385.97753906 84.57470703 C389.0402581 86.08433872 392.10907365 87.58073156 395.1796875 89.07421875 C408.51344924 95.6003739 421.45615906 102.73020138 434.28125 110.203125 C435.12365234 110.69393555 435.96605469 111.18474609 436.83398438 111.69042969 C457.21170403 123.62456606 477.20338528 136.27690231 496.28125 150.203125 C497.05694336 150.76773438 497.83263672 151.33234375 498.63183594 151.9140625 C518.22193887 166.19542684 537.24716473 181.08029149 555.67480469 196.83496094 C557.31079842 198.22829056 558.95537368 199.61092469 560.6015625 200.9921875 C566.91430699 206.31193953 573.06132138 211.78038347 579.0703125 217.44140625 C579.80067719 218.12944336 580.53104187 218.81748047 581.28353882 219.52636719 C589.17713963 226.9993854 596.88474966 234.65533991 604.56005859 242.3515625 C606.93601675 244.73295989 609.31738331 247.10885743 611.69921875 249.484375 C613.23990462 251.02572059 614.78028084 252.56737576 616.3203125 254.109375 C617.3673082 255.15333435 617.3673082 255.15333435 618.43545532 256.21838379 C622.3737896 260.17537638 626.13831748 264.2324058 629.78039551 268.4641571 C631.85204683 270.86447983 634.0048762 273.18678097 636.15625 275.515625 C640.25005209 280.00460557 644.13594667 284.61555976 647.94921875 289.34375 C649.98573606 291.8407863 652.06382977 294.29466448 654.1652832 296.73706055 C660.5974298 304.22916053 666.60400701 312.01120687 672.54248047 319.89794922 C674.31382796 322.24631527 676.09571888 324.58639669 677.87890625 326.92578125 C691.91748686 345.4086433 705.18726599 364.38894314 717.28125 384.203125 C718.17674561 385.66951416 718.17674561 385.66951416 719.09033203 387.16552734 C731.64026186 407.77892318 743.26373023 428.73524092 754.28125 450.203125 C754.78446777 451.18087891 755.28768555 452.15863281 755.80615234 453.16601562 C794.80413841 529.18010232 820.39723638 612.63769585 839.51953125 752.796875 C839.58278091 753.49757111 839.64603058 754.19826721 839.7111969 754.92019653 C840.91402192 768.92070185 841.44739406 782.87481024 841.484375 796.921875 C841.49139626 798.57979357 841.49848308 800.23771186 841.50563049 801.89562988 C841.52503269 807.16479887 841.53006447 812.43392389 841.53125 817.703125 C841.53169186 818.60047363 841.53213371 819.49782227 841.53258896 820.42236328 C841.5392838 846.33900099 841.44818662 872.14318125 838.53771973 897.92834473 C838.26620535 900.33656485 838.00533155 902.74580763 837.74511719 905.15527344 C829.03748692 984.81921714 809.43799781 1062.99562361 756.90966797 1182.89941406 C755.40003628 1185.9621331 753.90364344 1189.03094865 752.41015625 1192.1015625 C745.8840011 1205.43532424 738.75417362 1218.37803406 731.28125 1231.203125 C730.79043945 1232.04552734 730.29962891 1232.88792969 729.79394531 1233.75585938 C717.85980894 1254.13357903 705.20747269 1274.12526028 691.28125 1293.203125 C690.71664063 1293.97881836 690.15203125 1294.75451172 689.5703125 1295.55371094 C675.28894816 1315.14381387 660.40408351 1334.16903973 644.64941406 1352.59667969 C643.25608444 1354.23267342 641.87345031 1355.87724868 640.4921875 1357.5234375 C635.17243547 1363.83618199 629.70399153 1369.98319638 624.04296875 1375.9921875 C623.35493164 1376.72255219 622.66689453 1377.45291687 621.95800781 1378.20541382 C614.4849896 1386.09901463 606.82903509 1393.80662466 599.1328125 1401.48193359 C596.75141511 1403.85789175 594.37551757 1406.23925831 592 1408.62109375 C590.45865441 1410.16177962 588.91699924 1411.70215584 587.375 1413.2421875 C586.33104065 1414.2891832 586.33104065 1414.2891832 585.26599121 1415.35733032 C581.30899862 1419.2956646 577.2519692 1423.06019248 573.0202179 1426.70227051 C570.61989517 1428.77392183 568.29759403 1430.9267512 565.96875 1433.078125 C561.47976943 1437.17192709 556.86881524 1441.05782167 552.140625 1444.87109375 C549.6435887 1446.90761106 547.18971052 1448.98570477 544.74731445 1451.0871582 C537.25521447 1457.5193048 529.47316813 1463.52588201 521.58642578 1469.46435547 C519.23805973 1471.23570296 516.89797831 1473.01759388 514.55859375 1474.80078125 C496.0757317 1488.83936186 477.09543186 1502.10914099 457.28125 1514.203125 C455.81486084 1515.09862061 455.81486084 1515.09862061 454.31884766 1516.01220703 C433.70545182 1528.56213686 412.74913408 1540.18560523 391.28125 1551.203125 C390.30349609 1551.70634277 389.32574219 1552.20956055 388.31835938 1552.72802734 C312.30427268 1591.72601341 228.84667915 1617.31911138 88.6875 1636.44140625 C87.98680389 1636.50465591 87.28610779 1636.56790558 86.56417847 1636.6330719 C72.56367315 1637.83589692 58.60956476 1638.36926906 44.5625 1638.40625 C42.90458143 1638.41327126 41.24666314 1638.42035808 39.58874512 1638.42750549 C34.31957613 1638.44690769 29.05045111 1638.45193947 23.78125 1638.453125 C22.43522705 1638.45378778 22.43522705 1638.45378778 21.06201172 1638.45446396 C-4.85462599 1638.4611588 -30.65880625 1638.37006162 -56.44396973 1635.45959473 C-58.85218985 1635.18808035 -61.26143263 1634.92720655 -63.67089844 1634.66699219 C-143.33484214 1625.95936192 -221.51124861 1606.35987281 -341.41503906 1553.83154297 C-344.4777581 1552.32191128 -347.54657365 1550.82551844 -350.6171875 1549.33203125 C-363.95094924 1542.8058761 -376.89365906 1535.67604862 -389.71875 1528.203125 C-390.56115234 1527.71231445 -391.40355469 1527.22150391 -392.27148438 1526.71582031 C-412.64920403 1514.78168394 -432.64088528 1502.12934769 -451.71875 1488.203125 C-452.49444336 1487.63851563 -453.27013672 1487.07390625 -454.06933594 1486.4921875 C-473.65943887 1472.21082316 -492.68466473 1457.32595851 -511.11230469 1441.57128906 C-512.74829842 1440.17795944 -514.39287368 1438.79532531 -516.0390625 1437.4140625 C-522.35180699 1432.09431047 -528.49882138 1426.62586653 -534.5078125 1420.96484375 C-535.60335953 1419.93278809 -535.60335953 1419.93278809 -536.72103882 1418.87988281 C-544.61463963 1411.4068646 -552.32224966 1403.75091009 -559.99755859 1396.0546875 C-562.37351675 1393.67329011 -564.75488331 1391.29739257 -567.13671875 1388.921875 C-568.67740462 1387.38052941 -570.21778084 1385.83887424 -571.7578125 1384.296875 C-572.45580963 1383.6009021 -573.15380676 1382.9049292 -573.87295532 1382.18786621 C-577.8112896 1378.23087362 -581.57581748 1374.1738442 -585.21789551 1369.9420929 C-587.28954683 1367.54177017 -589.4423762 1365.21946903 -591.59375 1362.890625 C-595.68755209 1358.40164443 -599.57344667 1353.79069024 -603.38671875 1349.0625 C-605.42323606 1346.5654637 -607.50132977 1344.11158552 -609.6027832 1341.66918945 C-616.0349298 1334.17708947 -622.04150701 1326.39504313 -627.97998047 1318.50830078 C-629.75132796 1316.15993473 -631.53321888 1313.81985331 -633.31640625 1311.48046875 C-647.35498686 1292.9976067 -660.62476599 1274.01730686 -672.71875 1254.203125 C-673.31574707 1253.22553223 -673.91274414 1252.24793945 -674.52783203 1251.24072266 C-687.07776186 1230.62732682 -698.70123023 1209.67100908 -709.71875 1188.203125 C-710.22196777 1187.22537109 -710.72518555 1186.24761719 -711.24365234 1185.24023438 C-750.24163841 1109.22614768 -775.83473638 1025.76855415 -794.95703125 885.609375 C-795.02028091 884.90867889 -795.08353058 884.20798279 -795.1486969 883.48605347 C-796.35152192 869.48554815 -796.88489406 855.53143976 -796.921875 841.484375 C-796.92889626 839.82645643 -796.93598308 838.16853814 -796.94313049 836.51062012 C-796.96253269 831.24145113 -796.96756447 825.97232611 -796.96875 820.703125 C-796.96941278 819.35710205 -796.96941278 819.35710205 -796.97008896 817.98388672 C-796.9767838 792.06724901 -796.88568662 766.26306875 -793.97521973 740.47790527 C-793.70370535 738.06968515 -793.44283155 735.66044237 -793.18261719 733.25097656 C-784.47498692 653.58703286 -764.87549781 575.41062639 -712.34716797 455.50683594 C-710.83753628 452.4441169 -709.34114344 449.37530135 -707.84765625 446.3046875 C-701.3215011 432.97092576 -694.19167362 420.02821594 -686.71875 407.203125 C-686.22793945 406.36072266 -685.73712891 405.51832031 -685.23144531 404.65039062 C-673.29730894 384.27267097 -660.64497269 364.28098972 -646.71875 345.203125 C-645.87183594 344.03958496 -645.87183594 344.03958496 -645.0078125 342.85253906 C-630.72644816 323.26243613 -615.84158351 304.23721027 -600.08691406 285.80957031 C-598.69358444 284.17357658 -597.31095031 282.52900132 -595.9296875 280.8828125 C-590.60993547 274.57006801 -585.14149153 268.42305362 -579.48046875 262.4140625 C-578.79243164 261.68369781 -578.10439453 260.95333313 -577.39550781 260.20083618 C-569.9224896 252.30723537 -562.26653509 244.59962534 -554.5703125 236.92431641 C-552.18891511 234.54835825 -549.81301757 232.16699169 -547.4375 229.78515625 C-545.89615441 228.24447038 -544.35449924 226.70409416 -542.8125 225.1640625 C-542.1165271 224.46606537 -541.4205542 223.76806824 -540.70349121 223.04891968 C-536.74649862 219.1105854 -532.6894692 215.34605752 -528.4577179 211.70397949 C-526.05739517 209.63232817 -523.73509403 207.4794988 -521.40625 205.328125 C-516.91726943 201.23432291 -512.30631524 197.34842833 -507.578125 193.53515625 C-505.0810887 191.49863894 -502.62721052 189.42054523 -500.18481445 187.3190918 C-492.69271447 180.8869452 -484.91066813 174.88036799 -477.02392578 168.94189453 C-474.67555973 167.17054704 -472.33547831 165.38865612 -469.99609375 163.60546875 C-451.5132317 149.56688814 -432.53293186 136.29710901 -412.71875 124.203125 C-411.74115723 123.60612793 -410.76356445 123.00913086 -409.75634766 122.39404297 C-389.14295182 109.84411314 -368.18663408 98.22064477 -346.71875 87.203125 C-345.74099609 86.69990723 -344.76324219 86.19668945 -343.75585938 85.67822266 C-267.74177268 46.68023659 -184.28417915 21.08713862 -44.125 1.96484375 C-43.07395584 1.86996925 -43.07395584 1.86996925 -42.00167847 1.7731781 C-28.00117315 0.57035308 -14.04706476 0.03698094 0 0 Z " fill="#FEFEFE" transform="translate(796.71875,-0.203125)"/>
<path d="M0 0 C7.24603553 2.13817442 13.47901886 5.20597461 20 9 C21.39992188 9.7734375 21.39992188 9.7734375 22.828125 10.5625 C23.54484375 11.036875 24.2615625 11.51125 25 12 C25 12.66 25 13.32 25 14 C25.7425 14.268125 26.485 14.53625 27.25 14.8125 C29.89061949 15.95276751 31.85552844 17.09380306 34 19 C34 19.66 34 20.32 34 21 C34.8353125 21.309375 34.8353125 21.309375 35.6875 21.625 C38.27936489 23.16610885 39.75739327 25.04181839 41.6015625 27.39453125 C43.01835343 29.02107056 44.46106614 30.15280626 46.1875 31.4375 C49.98039128 34.57184532 52.54108036 38.37881409 55.25 42.4375 C55.67434326 43.07034912 56.09868652 43.70319824 56.53588867 44.35522461 C59.19287047 48.44065722 61.14854565 52.49603225 63 57 C63.82723577 58.55628332 64.67823175 60.10039957 65.5625 61.625 C67.33615519 64.68607468 68.69789435 67.71271688 70 71 C70.77868084 72.84168208 71.5587117 74.68279374 72.33984375 76.5234375 C83.72953066 103.88040459 88.31653165 129.44258656 88.4375 158.875 C88.44730392 160.29591949 88.44730392 160.29591949 88.45730591 161.74554443 C88.6157037 199.91403601 78.47275762 238.39584938 62.375 272.875 C59.43805308 279.59734518 59.4193465 284.3084859 61.734375 291.1796875 C64.35770899 297.27778843 68.72576 301.15299282 74.4375 304.375 C82.01150753 306.22231891 88.30450475 304.82153461 95 301 C108.57942078 290.75350505 115.26239682 273.38880166 117.62890625 256.99609375 C117.75136719 256.00738281 117.87382813 255.01867187 118 254 C118.66 254 119.32 254 120 254 C120.28794209 237.69361797 120.22161174 221.66483523 115 206 C115.66 205.34 116.32 204.68 117 204 C118.1725131 204.95117134 119.33787015 205.91117009 120.5 206.875 C121.1496875 207.40867187 121.799375 207.94234375 122.46875 208.4921875 C122.9740625 208.98976563 123.479375 209.48734375 124 210 C124 210.66 124 211.32 124 212 C124.55171875 212.19980469 125.1034375 212.39960937 125.671875 212.60546875 C128.93894305 214.56242059 130.96833336 217.3323803 133.25 220.3125 C133.97352661 221.24811768 133.97352661 221.24811768 134.71166992 222.20263672 C146.57047676 237.78490041 154.4597058 255.04506918 160.6875 273.5 C161.31108398 275.29630859 161.31108398 275.29630859 161.94726562 277.12890625 C162.33978516 278.29292969 162.73230469 279.45695312 163.13671875 280.65625 C163.67365356 282.23116211 163.67365356 282.23116211 164.22143555 283.83789062 C165.08019124 287.32569363 165.13427749 290.42151889 165 294 C165.99 294 166.98 294 168 294 C173.87020609 320.78155737 173.87020609 320.78155737 175 334 C175.12918823 335.49901855 175.12918823 335.49901855 175.26098633 337.02832031 C175.9597582 345.85661538 176.20308851 354.64612552 176.1875 363.5 C176.18656342 364.1968692 176.18562683 364.8937384 176.18466187 365.61172485 C176.10010948 394.86559901 172.24444194 424.16601836 163 452 C162.69690918 452.91362305 162.39381836 453.82724609 162.08154297 454.76855469 C158.20591659 466.26342215 153.8491241 477.32515307 148.07714844 488.00195312 C146.92912244 490.1314737 145.8128145 492.27619672 144.6953125 494.421875 C119.2345204 542.54194809 73.51100654 578.34159109 21.7890625 594.4296875 C3.88779468 599.5686566 -15.07334362 602.2434903 -33.6875 602.0625 C-34.59177734 602.05798828 -35.49605469 602.05347656 -36.42773438 602.04882812 C-38.61851938 602.03723667 -40.80926944 602.01931104 -43 602 C-39.97163971 599.98109314 -38.12410872 599.45205056 -34.625 598.6875 C-18.47023223 594.7753213 -4.78625227 587.78625227 7 576 C7.62519531 575.37480469 8.25039063 574.74960938 8.89453125 574.10546875 C21.11986668 560.99703912 28.04033224 544.21947825 32 527 C32.1750708 526.24138672 32.3501416 525.48277344 32.53051758 524.70117188 C37.28439325 497.34969999 28.90728601 471.8043699 20.10253906 446.34692383 C19.84098022 445.585103 19.57942139 444.82328217 19.30993652 444.03837585 C18.81703505 442.60561235 18.31909328 441.17456842 17.81506348 439.74568176 C15.80906377 433.90012111 14.84252904 428.23561245 14.9375 422.0625 C14.94652344 421.29035156 14.95554687 420.51820313 14.96484375 419.72265625 C14.98224609 418.86994141 14.98224609 418.86994141 15 418 C5.59345249 424.98633803 1.73765004 434.9196534 -1 446 C-1.17370117 446.66990967 -1.34740234 447.33981934 -1.52636719 448.0300293 C-2.95647414 453.87782196 -3.41352513 459.55749487 -3.625 465.5625 C-3.66367187 466.47580078 -3.70234375 467.38910156 -3.7421875 468.33007812 C-3.83530252 470.55319924 -3.92112166 472.77633613 -4 475 C-4.66 475 -5.32 475 -6 475 C-23.65220046 453.18618057 -25.87893476 428.0851498 -24 401 C-21.51527066 379.2018683 -13.08130663 359.24367352 -4.42163086 339.30297852 C4.63005225 318.41766645 11.13785755 298.76224126 13 276 C12.34 276 11.68 276 11 276 C10.88527344 276.72960937 10.77054688 277.45921875 10.65234375 278.2109375 C7.92064081 289.89019437 -2.84567766 298.87072934 -11 307 C-11.89976562 307.92296875 -12.79953125 308.8459375 -13.7265625 309.796875 C-19.21146986 315.40352239 -24.79012292 320.56568902 -30.94140625 325.44921875 C-35.53082385 329.27666408 -39.83947555 333.39020663 -44.16699219 337.5090332 C-48.11120388 341.25802132 -52.13327604 344.88453215 -56.2434082 348.45068359 C-58.2506812 350.22110117 -60.14116873 352.0747819 -62 354 C-64.55204315 356.59681584 -67.15494211 359.02773335 -69.9375 361.375 C-74.74310948 365.52741984 -78.83599927 370.21667005 -83 375 C-83.92625388 376.02939278 -84.85337285 377.05800766 -85.78125 378.0859375 C-107.61178548 402.54529996 -123.99491582 432.16757606 -132 464 C-132.32097656 465.25167969 -132.64195312 466.50335937 -132.97265625 467.79296875 C-137.36588403 488.16528549 -136.49168977 509.97268525 -131 530 C-130.80792969 530.96550781 -130.61585938 531.93101562 -130.41796875 532.92578125 C-125.68526374 555.36356977 -108.56834648 576.4199567 -90.1484375 589.01953125 C-87.17173354 590.89197406 -84.17321954 592.48962373 -81 594 C-85.28737496 595.42912499 -88.32455391 593.72697145 -92.375 592.1875 C-93.21281006 591.87127686 -94.05062012 591.55505371 -94.91381836 591.22924805 C-132.12332223 576.86013031 -164.61086892 552.52427991 -188 520 C-188.7734375 518.948125 -189.546875 517.89625 -190.34375 516.8125 C-203.24245923 498.78964601 -212.59517069 479.17045377 -219 458 C-219.19722656 457.3503125 -219.39445313 456.700625 -219.59765625 456.03125 C-227.60489568 429.15380297 -229.77434857 399.66757982 -225 372 C-224.87641113 371.2682959 -224.75282227 370.5365918 -224.62548828 369.78271484 C-218.78251781 336.38925328 -203.24531085 308.15434687 -184.93603516 280.07666016 C-180.43075974 273.15988108 -176.10129333 266.16424059 -172 259 C-171.37496582 257.91380371 -171.37496582 257.91380371 -170.73730469 256.80566406 C-158.39019498 235.10831593 -151.36071969 212.57019804 -156.30078125 187.51953125 C-157.81424655 182.0659831 -160.37650531 177.34819363 -164 173 C-160.47626412 171.82542137 -159.97933715 172.16880823 -156.75 173.6875 C-155.96238281 174.05746094 -155.17476563 174.42742187 -154.36328125 174.80859375 C-151.16321033 176.42185264 -148.07870671 178.16587685 -145 180 C-145 180.66 -145 181.32 -145 182 C-144.34 182 -143.68 182 -143 182 C-143 182.66 -143 183.32 -143 184 C-142.319375 184.185625 -141.63875 184.37125 -140.9375 184.5625 C-136.79967286 186.58739413 -133.80342954 189.35025211 -131 193 C-130.0625 196.4375 -130.0625 196.4375 -130 199 C-129.01 199 -128.02 199 -127 199 C-124.50022457 202.33303391 -124 203.73303602 -124 208 C-123.34 208 -122.68 208 -122 208 C-121.71125 209.134375 -121.4225 210.26875 -121.125 211.4375 C-120.75375 212.613125 -120.3825 213.78875 -120 215 C-119.34 215.33 -118.68 215.66 -118 216 C-117.37330801 218.16467461 -116.84572626 220.35864524 -116.375 222.5625 C-115.98441406 224.35880859 -115.98441406 224.35880859 -115.5859375 226.19140625 C-115.39257812 227.11824219 -115.19921875 228.04507813 -115 229 C-114.34 229 -113.68 229 -113 229 C-111.67556216 227.48887985 -110.42031736 225.91700963 -109.1953125 224.32421875 C-103.5790181 217.30666002 -97.28548946 211.09848747 -90.875 204.8125 C-88.59810325 202.57249296 -86.32455335 200.3291627 -84.0546875 198.08203125 C-83.51289856 197.5458316 -82.97110962 197.00963196 -82.41290283 196.45718384 C-78.99369944 193.05102376 -75.76525382 189.53931739 -72.63720703 185.86206055 C-68.77307834 181.4672336 -64.48932162 177.45373447 -60.31640625 173.35546875 C-55.65340894 168.74306454 -51.25323263 163.99164108 -47 159 C-46.02617063 157.8709825 -45.05221795 156.74207134 -44.078125 155.61328125 C-43.13494524 154.51342493 -42.19224511 153.41315714 -41.25 152.3125 C-40.74267334 151.72090088 -40.23534668 151.12930176 -39.71264648 150.51977539 C-37.11386267 147.48537824 -34.52612084 144.4424025 -31.95703125 141.3828125 C-31.22661621 140.51402466 -31.22661621 140.51402466 -30.48144531 139.62768555 C-29.5659297 138.53716342 -28.65236972 137.44499507 -27.74121094 136.35083008 C-24.97884069 133.06054727 -22.03834701 130.03342262 -19 127 C-15.00046702 122.30667049 -11.51593623 117.66085652 -9 112 C-7.250437 108.25093643 -5.28187466 104.89706717 -2.9375 101.5 C-0.60978874 98.07452861 0.902448 95.02435735 2 91 C3.12239528 88.15659863 4.27610063 85.32775498 5.4375 82.5 C8.69135465 73.71294074 10.27003693 64.69338385 10.7890625 55.36328125 C11 53 11 53 12 51 C13.33648482 34.49596651 9.46591207 19.43699878 1.171875 5.3125 C0 3 0 3 0 0 Z " fill="#66A2AE" transform="translate(428,521)"/>
<path d="M0 0 C1.33897583 0.95043374 2.67105427 1.91059147 4 2.875 C4.7425 3.40867187 5.485 3.94234375 6.25 4.4921875 C6.8275 4.98976563 7.405 5.48734375 8 6 C8 6.66 8 7.32 8 8 C8.55171875 8.19980469 9.1034375 8.39960937 9.671875 8.60546875 C12.93894305 10.56242059 14.96833336 13.3323803 17.25 16.3125 C17.73235107 16.93624512 18.21470215 17.55999023 18.71166992 18.20263672 C30.57047676 33.78490041 38.4597058 51.04506918 44.6875 69.5 C45.10322266 70.69753906 45.51894531 71.89507813 45.94726562 73.12890625 C46.53604492 74.87494141 46.53604492 74.87494141 47.13671875 76.65625 C47.49467529 77.70619141 47.85263184 78.75613281 48.22143555 79.83789062 C49.08019124 83.32569363 49.13427749 86.42151889 49 90 C49.99 90 50.98 90 52 90 C57.87020609 116.78155737 57.87020609 116.78155737 59 130 C59.08612549 130.9993457 59.17225098 131.99869141 59.26098633 133.02832031 C59.9597582 141.85661538 60.20308851 150.64612552 60.1875 159.5 C60.18656342 160.1968692 60.18562683 160.8937384 60.18466187 161.61172485 C60.10010948 190.86559901 56.24444194 220.16601836 47 248 C46.69690918 248.91362305 46.39381836 249.82724609 46.08154297 250.76855469 C42.20591659 262.26342215 37.8491241 273.32515307 32.07714844 284.00195312 C30.92912244 286.1314737 29.8128145 288.27619672 28.6953125 290.421875 C3.63203746 337.79065372 -40.14830122 371.72487201 -90.3125 389.125 C-91.17794434 389.43276367 -92.04338867 389.74052734 -92.93505859 390.05761719 C-98.13059194 391.7789368 -101.53059649 391.98268243 -107 391 C-110.28412991 391.47695816 -110.28412991 391.47695816 -113.5625 392.375 C-120.74449934 394.06442842 -127.63420033 394.67536749 -135 395 C-133.71234024 392.42468048 -132.8246688 392.37483753 -130.16015625 391.40625 C-129.35328369 391.10348145 -128.54641113 390.80071289 -127.71508789 390.48876953 C-126.83973389 390.16247559 -125.96437988 389.83618164 -125.0625 389.5 C-107.33025443 382.62348449 -90.22079524 373.40968388 -77.26953125 359.1796875 C-76 358 -76 358 -74 358 C-73.7525 357.4225 -73.505 356.845 -73.25 356.25 C-72 354 -72 354 -70.1875 352.3125 C-67.6310376 349.60995403 -66.15662715 346.81945904 -64.41796875 343.55078125 C-62.89837844 340.81719318 -61.22169503 338.23555276 -59.5 335.625 C-53.73450869 326.6328346 -50.21180957 317.140342 -47 307 C-46.51080078 305.56140625 -46.51080078 305.56140625 -46.01171875 304.09375 C-39.91088876 285.43793011 -38.66001703 266.75127331 -38.79418945 247.23876953 C-38.81248976 244.50153215 -38.81469757 241.76463623 -38.81445312 239.02734375 C-38.83171441 230.54534917 -38.99378815 222.10024414 -39.5 213.6328125 C-40.09893722 203.56242698 -40.18611458 193.50633558 -40.18530273 183.41992188 C-40.18750292 180.37095437 -40.20579199 177.32234224 -40.22460938 174.2734375 C-40.26908581 159.31150479 -39.97832827 144.37762494 -35.375 130 C-35.11847656 129.17459717 -34.86195313 128.34919434 -34.59765625 127.4987793 C-30.16016864 113.77227362 -24.06407169 100.35158418 -14.0625 89.8125 C-4.23830165 78.99273279 0.16483677 64.2315109 2 50 C2.66 50 3.32 50 4 50 C4.28794209 33.69361797 4.22161174 17.66483523 -1 2 C-0.67 1.34 -0.34 0.68 0 0 Z " fill="#609EC2" transform="translate(544,725)"/>
<path d="M0 0 C6.53666539 1.64756115 12.76616481 3.57024564 18 8 C18 8.66 18 9.32 18 10 C18.66 10 19.32 10 20 10 C20 10.66 20 11.32 20 12 C20.680625 12.185625 21.36125 12.37125 22.0625 12.5625 C26.20032714 14.58739413 29.19657046 17.35025211 32 21 C32.9375 24.4375 32.9375 24.4375 33 27 C33.99 27 34.98 27 36 27 C38.49977543 30.33303391 39 31.73303602 39 36 C39.66 36 40.32 36 41 36 C48.5194952 55.24042754 50.56790399 74.99323995 45.55859375 95.1640625 C44.74580601 98.0600939 44.74580601 98.0600939 46 101 C45.0625 103.6875 45.0625 103.6875 44 106 C43.01 106 42.02 106 41 106 C42.485 106.99 42.485 106.99 44 108 C42.515 108.495 42.515 108.495 41 109 C41.309375 110.1446875 41.309375 110.1446875 41.625 111.3125 C42 114 42 114 40 117 C39.01 117 38.02 117 37 117 C37 117.66 37 118.32 37 119 C37.66 119 38.32 119 39 119 C38.1875 122.4375 38.1875 122.4375 37 126 C35.515 126.495 35.515 126.495 34 127 C34.66 127.66 35.32 128.32 36 129 C35.65066406 129.45890625 35.30132812 129.9178125 34.94140625 130.390625 C34.48636719 131.00421875 34.03132813 131.6178125 33.5625 132.25 C33.11003906 132.85328125 32.65757812 133.4565625 32.19140625 134.078125 C30.94979462 136.08098704 30.53688362 137.72506943 30 140 C28.69593116 142.01920337 27.36176581 144.01924973 26 146 C24.95448703 147.97485783 24.02037895 149.95341953 23.125 152 C22 154 22 154 20.0625 155.6875 C17.55970222 158.4936672 16.9184977 160.94417703 15.84765625 164.49609375 C14.3623366 168.88360478 12.13949752 172.90279233 10 177 C9.195625 178.6396875 9.195625 178.6396875 8.375 180.3125 C7 183 7 183 5.375 185.625 C3.94624875 187.82711622 3.94624875 187.82711622 3.5703125 189.83984375 C2.65423178 193.30965634 0.83411304 196.30909553 -0.84375 199.46484375 C-2.00077527 202.00169984 -2.52260267 204.26539393 -3 207 C-3.6492959 208.34187818 -4.31731862 209.67479497 -5 211 C-7.03247873 216.55544187 -8.48368288 222.2871728 -10 228 C-10.28037109 229.02287109 -10.28037109 229.02287109 -10.56640625 230.06640625 C-12.13165746 235.96999154 -13.04373589 241.97312533 -14 248 C-14.17402344 249.00804687 -14.34804687 250.01609375 -14.52734375 251.0546875 C-17.95541455 270.2247656 -17.95541455 270.2247656 -16 289 C-15.79488417 291.58673851 -15.62763347 294.15951318 -15.5 296.75 C-15.11264732 304.43966798 -14.2366862 311.58626485 -12 319 C-11.72800781 320.02738281 -11.45601562 321.05476563 -11.17578125 322.11328125 C-9.30483456 329.04678956 -7.08272437 335.73978644 -4.5 342.4375 C-4.21552002 343.18233643 -3.93104004 343.92717285 -3.63793945 344.69458008 C-0.71688123 352.1158494 3.28007127 358.54138963 7.828125 365.08203125 C9 367 9 367 9 369 C9.66 369 10.32 369 11 369 C12.02486337 370.65149412 13.02006777 372.32145581 14 374 C16.85653833 377.46455652 19.9299221 380.72427095 23 384 C23.71542969 384.76957031 24.43085938 385.53914063 25.16796875 386.33203125 C35.31777785 396.88857223 47.86200418 404.90800279 60 413 C56.07023273 414.09395523 54.12235923 413.99890311 50.515625 412.11328125 C49.24912109 411.45682617 49.24912109 411.45682617 47.95703125 410.78710938 C46.61705078 410.05717773 46.61705078 410.05717773 45.25 409.3125 C44.32058594 408.81427734 43.39117187 408.31605469 42.43359375 407.80273438 C33.44582084 402.8785168 25.10354314 397.26153975 17 391 C16.43941895 390.5678418 15.87883789 390.13568359 15.30126953 389.69042969 C0.10371854 377.78867759 -13.70701166 363.64329685 -25 348 C-26.16208984 346.42025391 -26.16208984 346.42025391 -27.34765625 344.80859375 C-40.24174706 326.78340676 -49.59525772 307.17016609 -56 286 C-56.19722656 285.3503125 -56.39445313 284.700625 -56.59765625 284.03125 C-64.60489568 257.15380297 -66.77434857 227.66757982 -62 200 C-61.87641113 199.2682959 -61.75282227 198.5365918 -61.62548828 197.78271484 C-55.78251781 164.38925328 -40.24531085 136.15434687 -21.93603516 108.07666016 C-17.43075974 101.15988108 -13.10129333 94.16424059 -9 87 C-8.58331055 86.27586914 -8.16662109 85.55173828 -7.73730469 84.80566406 C4.60980502 63.10831593 11.63928031 40.57019804 6.69921875 15.51953125 C5.18575345 10.0659831 2.62349469 5.34819363 -1 1 C-0.67 0.67 -0.34 0.34 0 0 Z " fill="#5993C0" transform="translate(265,693)"/>
<path d="M0 0 C1.50697666 2.87515283 2.6539767 5.75997898 3.75 8.8125 C6.30810396 15.21247965 9.35733716 19.48291577 15.375 22.9375 C23.99003747 25.46259719 29.93377273 23.3213877 38 20 C36.72496619 23.4738166 35.12769571 26.60354853 33.28369141 29.80786133 C22.63045456 48.53531571 18.81978705 69.33890266 18.8671875 90.6875 C18.86575241 92.16138184 18.86575241 92.16138184 18.86428833 93.66503906 C18.86361263 95.73225977 18.86542396 97.79948268 18.86962891 99.86669922 C18.87493926 102.96456915 18.86968689 106.06229102 18.86328125 109.16015625 C18.86014538 119.11809932 19.03617926 129.01957497 19.6348114 138.95959473 C20.13263596 147.55773203 20.18607169 156.15047864 20.18530273 164.76123047 C20.18749882 167.49852864 20.20578757 170.23542811 20.22460938 172.97265625 C20.2742725 188.18567292 19.72359735 203.55792914 15.6875 218.3125 C15.4709375 219.13806396 15.254375 219.96362793 15.03125 220.81420898 C13.09035634 228.03436145 10.7689893 235.05107144 8 242 C7.65710938 242.89203125 7.31421875 243.7840625 6.9609375 244.703125 C3.4434652 253.15518074 -1.75622914 260.59407992 -6.81030273 268.18212891 C-8.2724404 270.41629207 -9.62823567 272.7096067 -11 275 C-14.82043337 280.02114101 -19.17975731 283.951328 -24 288 C-24.77988281 288.6909375 -25.55976563 289.381875 -26.36328125 290.09375 C-41.05048279 302.75282508 -58.11019142 309.9742007 -76 317 C-67.62680558 316.63594807 -59.84112419 315.72489411 -51.7421875 313.5234375 C-49.02749022 313.00524742 -47.5676168 313.07860641 -45 314 C-47.9254042 315.95026947 -49.36153266 316.42978292 -52.71875 317.03515625 C-53.65203125 317.20466797 -54.5853125 317.37417969 -55.546875 317.54882812 C-56.52140625 317.71833984 -57.4959375 317.88785156 -58.5 318.0625 C-59.44359375 318.23587891 -60.3871875 318.40925781 -61.359375 318.58789062 C-71.48142322 320.39243611 -81.41246155 321.16240688 -91.6875 321.0625 C-92.59177734 321.05798828 -93.49605469 321.05347656 -94.42773438 321.04882812 C-96.61851938 321.03723667 -98.80926944 321.01931104 -101 321 C-97.97163971 318.98109314 -96.12410872 318.45205056 -92.625 317.6875 C-76.47023223 313.7753213 -62.78625227 306.78625227 -51 295 C-50.37480469 294.37480469 -49.74960937 293.74960938 -49.10546875 293.10546875 C-36.88013332 279.99703912 -29.95966776 263.21947825 -26 246 C-25.8249292 245.24138672 -25.6498584 244.48277344 -25.46948242 243.70117188 C-20.71560675 216.34969999 -29.09271399 190.8043699 -37.89746094 165.34692383 C-38.15901978 164.585103 -38.42057861 163.82328217 -38.69006348 163.03837585 C-39.18296495 161.60561235 -39.68090672 160.17456842 -40.18493652 158.74568176 C-42.19093623 152.90012111 -43.15747096 147.23561245 -43.0625 141.0625 C-43.05347656 140.29035156 -43.04445313 139.51820313 -43.03515625 138.72265625 C-43.02355469 138.15417969 -43.01195312 137.58570313 -43 137 C-52.40654751 143.98633803 -56.26234996 153.9196534 -59 165 C-59.17370117 165.66990967 -59.34740234 166.33981934 -59.52636719 167.0300293 C-60.95647414 172.87782196 -61.41352513 178.55749487 -61.625 184.5625 C-61.66367187 185.47580078 -61.70234375 186.38910156 -61.7421875 187.33007812 C-61.83530252 189.55319924 -61.92112166 191.77633613 -62 194 C-62.66 194 -63.32 194 -64 194 C-82.23214776 171.46950699 -84.40557344 144.57605106 -81.67041016 116.6328125 C-81.29727632 113.77499817 -80.84673302 110.95675303 -80.3125 108.125 C-80.16425781 107.3117627 -80.01601563 106.49852539 -79.86328125 105.66064453 C-79.36328125 103.4453125 -79.36328125 103.4453125 -78 100 C-75.5859375 98.734375 -75.5859375 98.734375 -73 98 C-71.00485882 96.22828217 -71.00485882 96.22828217 -69.3125 94.125 C-68.73113281 93.44695312 -68.14976562 92.76890625 -67.55078125 92.0703125 C-65.953196 90.07041398 -65.953196 90.07041398 -64.953125 87.87109375 C-63.58452322 85.18437141 -61.33602186 83.85683789 -59 82 C-58.505 80.515 -58.505 80.515 -58 79 C-56.36241346 77.30475197 -54.69023687 75.64275831 -53 74 C-39.45663535 58.94296518 -27.47191975 42.66772197 -16 26 C-15.53932129 25.33162109 -15.07864258 24.66324219 -14.60400391 23.97460938 C-9.27377953 16.20700317 -4.29692278 8.40170675 0 0 Z " fill="#365D88" transform="translate(486,802)"/>
<path d="M0 0 C1.5446605 1.49662687 3.06738071 3.01638023 4.5625 4.5625 C5.20832031 5.2225 5.85414063 5.8825 6.51953125 6.5625 C16.45885089 17.30302841 23.19375565 31.78814316 23.5625 46.5625 C23.61277344 47.59503906 23.66304687 48.62757813 23.71484375 49.69140625 C24.25119517 68.8927871 18.51629793 86.23887516 5.5625 100.5625 C5.03269531 101.17222656 4.50289062 101.78195312 3.95703125 102.41015625 C-8.20535835 115.55478158 -26.30193831 121.48806301 -43.7265625 122.8125 C-61.40358206 123.45094766 -79.60384521 117.28268647 -92.875 105.4375 C-105.91593363 93.02585838 -113.02611374 76.66141546 -113.7109375 58.71875 C-113.98288784 46.08395613 -114.03342417 35.13880116 -108.4375 23.5625 C-107.94121094 22.52480469 -107.44492187 21.48710938 -106.93359375 20.41796875 C-97.75554775 3.18978119 -83.08597417 -7.38630201 -64.8125 -13.6875 C-42.38129234 -18.67221281 -17.75872149 -15.5590007 0 0 Z " fill="#1A273B" transform="translate(965.4375,911.4375)"/>
<path d="M0 0 C1.56234375 0.51046875 1.56234375 0.51046875 3.15625 1.03125 C18.31633098 6.27352099 30.7538283 16.59733693 38 31 C39.11156403 34.30409285 40.08297528 37.63716295 41 41 C36.98421822 41.46061399 32.9665654 41.80285374 28.9375 42.125 C27.2369043 42.32222656 27.2369043 42.32222656 25.50195312 42.5234375 C22.07641919 42.76312501 19.33884532 42.82565745 16 42 C13.5836308 39.68399033 12.11124982 37.45594735 10.52197266 34.51879883 C7.99794764 30.34164674 4.17818537 28.32464658 0 26 C-0.94875 25.4225 -1.8975 24.845 -2.875 24.25 C-15.57090311 19.17163876 -28.4820529 19.99282116 -41 25 C-52.97374436 30.64452663 -58.74928905 39.1066111 -64 51 C-67.33909817 61.01729452 -66.21542931 75.90012657 -62.2578125 85.53125 C-56.15630394 97.50688171 -47.63227827 105.3996518 -34.78515625 109.75 C-22.07563206 113.05953252 -8.86278621 110.87319362 2.5859375 104.578125 C10.0261229 99.27592391 13.92130077 93.15739846 18 85 C5.46 85 -7.08 85 -20 85 C-20 77.74 -20 70.48 -20 63 C0.46 63 20.92 63 42 63 C42 85.44 42 107.88 42 131 C35.07 131 28.14 131 21 131 C21 126.38 21 121.76 21 117 C19.4325 118.36125 17.865 119.7225 16.25 121.125 C0.67267389 133.80654113 -16.47660537 135.67030445 -36 134 C-52.92843945 131.29254361 -67.71721445 121.26076419 -78.35546875 108.08203125 C-90.12561408 91.36533329 -93.34251372 71.8443262 -90.71142578 51.80175781 C-89.92957313 47.67735387 -88.59290384 43.87322154 -87 40 C-86.2884375 38.25009766 -86.2884375 38.25009766 -85.5625 36.46484375 C-78.13259285 20.05117868 -64.65785526 7.76847281 -48 1 C-32.91903344 -4.30626601 -15.13679611 -5.79309481 0 0 Z " fill="#19263B" transform="translate(1253,899)"/>
<path d="M0 0 C9.84956727 -0.06801946 19.69897623 -0.12295595 29.54872608 -0.15543652 C34.1233124 -0.17103259 38.69772844 -0.19215895 43.2722168 -0.22631836 C47.69427328 -0.25912947 52.11616689 -0.27689847 56.5383358 -0.28463173 C58.21787768 -0.29013647 59.89741156 -0.30088492 61.57688332 -0.31719017 C76.91539431 -0.46006099 91.20516527 1.23742126 102.8125 12.25 C112.40770499 22.50519263 115.72553522 34.29767635 115.4140625 48.21484375 C114.05026055 60.68205214 107.58293282 70.54692103 98.15234375 78.45703125 C93.38463891 81.87489588 88.88588623 84 83 84 C91.39242693 95.30214696 99.88424659 106.49125515 108.73681641 117.43701172 C110.56505582 119.69916648 112.3826065 121.96917109 114.1875 124.25 C114.71730469 124.91515625 115.24710938 125.5803125 115.79296875 126.265625 C117 128 117 128 118 131 C118.66 131 119.32 131 120 131 C120 131.66 120 132.32 120 133 C94.69858465 135.5216552 94.69858465 135.5216552 87.46435547 131.63916016 C83.43340221 128.1220427 80.78884553 123.76743603 78.21777344 119.12011719 C76.40976531 115.97241418 74.16699211 113.24162708 71.875 110.4375 C69.0969525 106.97796272 66.89657881 103.92669737 65.0625 99.89453125 C62.74816702 95.28094588 60.66363943 91.51003904 56 89 C45.43346894 86.80511657 34.74142792 87.69310206 24 88 C24 102.52 24 117.04 24 132 C16.08 132 8.16 132 0 132 C0 110.22 0 88.44 0 66 C7.49654297 65.96132813 7.49654297 65.96132813 15.14453125 65.921875 C18.33012782 65.89667793 21.51563212 65.87032321 24.70117188 65.83984375 C29.74601464 65.79168318 34.79064355 65.74757359 39.83569336 65.72900391 C43.9078768 65.71374504 47.9794968 65.67913886 52.05142784 65.63169098 C53.5969214 65.61697153 55.14249544 65.60896446 56.68805885 65.60811615 C65.49197038 65.59843331 74.1349625 65.51819074 82 61 C87.19818454 55.74659704 89.14904115 51.14866387 89.3125 43.75 C89.23013308 37.01088814 88.51382763 33.48149012 83.62548828 28.63813782 C76.57183088 23.25840444 67.80597146 24.27016008 59.375 24.29296875 C57.6600571 24.27984008 55.94512963 24.26453228 54.23022461 24.24714661 C49.73886907 24.20742008 45.24791918 24.19711418 40.75640869 24.19311523 C36.16430451 24.1837604 31.57243637 24.14633223 26.98046875 24.11132812 C17.98693426 24.04687781 8.99375108 24.01613257 0 24 C0 16.08 0 8.16 0 0 Z " fill="#1A273C" transform="translate(1020,898)"/>
<path d="M0 0 C7.92 0 15.84 0 24 0 C24.0093457 2.38565186 24.01869141 4.77130371 24.02832031 7.22924805 C24.0622528 15.15622167 24.11789094 23.08293941 24.18390274 31.00970745 C24.22322886 35.81060235 24.25548967 40.61131791 24.27099609 45.41235352 C24.28626134 50.05509169 24.32087917 54.6973363 24.36830902 59.33985329 C24.38302187 61.10140478 24.39103514 62.86302678 24.39188385 64.62463951 C24.40406903 77.24732211 24.77467819 90.17178202 33.30078125 100.3515625 C40.87365553 107.698121 49.59619039 109.39395342 59.92919922 109.37011719 C66.00653508 109.22692286 70.71611267 107.91524818 76 105 C77.0725 104.4225 78.145 103.845 79.25 103.25 C86.64251509 97.20157856 90.74481169 89.41681617 92 80 C92.11292012 77.31746921 92.18406793 74.6579419 92.20532227 71.97509766 C92.21522186 71.19393585 92.22512146 70.41277405 92.23532104 69.60794067 C92.26673757 67.04334473 92.2916144 64.47873031 92.31640625 61.9140625 C92.33699295 60.12901344 92.35798986 58.34396907 92.37937927 56.55892944 C92.43442279 51.87367563 92.48390981 47.18837912 92.53222656 42.50305176 C92.58257141 37.71683986 92.63818954 32.93068953 92.69335938 28.14453125 C92.80072405 18.76307161 92.90172904 9.38155931 93 0 C100.92 0 108.84 0 117 0 C117.11375105 10.25019496 117.20514296 20.49995881 117.25906086 30.75064659 C117.28496151 35.51239169 117.31999395 40.27367615 117.37719727 45.03515625 C117.43222484 49.64530471 117.4615666 54.2550151 117.47438622 58.86546707 C117.48350109 60.60904446 117.50129269 62.35260265 117.52865028 64.09598923 C117.83030241 84.14865448 113.66862696 102.76049064 99.47265625 117.71484375 C85.48916918 130.63797161 68.51494031 133.75138401 50.16943359 133.13183594 C35.48962154 132.23974743 22.75715872 124.6651593 13 114 C0.9370371 98.28227324 -0.3108869 82.04564814 -0.1953125 62.98828125 C-0.19157538 61.16554419 -0.18873172 59.34280511 -0.18673706 57.52006531 C-0.17915561 52.75752062 -0.15955522 47.99510083 -0.1373291 43.23260498 C-0.11675147 38.35886321 -0.10771003 33.48510096 -0.09765625 28.61132812 C-0.07630335 19.07415547 -0.04116692 9.53710773 0 0 Z " fill="#7491B2" transform="translate(852,717)"/>
<path d="M0 0 C5.94450628 5.45261932 9.94768992 11.55851535 13 19 C13.36480469 19.88171875 13.72960937 20.7634375 14.10546875 21.671875 C17.37286029 33.82828372 16.12327581 48.0264452 10 59 C8.21486465 61.90820127 6.27553933 64.46103617 4 67 C3.47664062 67.61488281 2.95328125 68.22976563 2.4140625 68.86328125 C-5.11891623 77.12126498 -16.01659832 81.24411372 -27.01171875 82.28515625 C-38.84771265 82.63371945 -50.34435626 78.90858169 -59.296875 70.9609375 C-64.07377529 65.87874659 -67.27052172 60.38994141 -70 54 C-70.35320313 53.20078125 -70.70640625 52.4015625 -71.0703125 51.578125 C-74.73252245 41.42241673 -74.63833555 27.47465375 -70.31640625 17.55078125 C-63.91170169 5.14047835 -55.50602597 -4.22966381 -41.92578125 -8.6796875 C-27.26570288 -12.52236513 -12.00136346 -9.22707567 0 0 Z " fill="#FCFDFD" transform="translate(949,929)"/>
<path d="M0 0 C32.67 0 65.34 0 99 0 C99 7.26 99 14.52 99 22 C74.25 22 49.5 22 24 22 C24 32.56 24 43.12 24 54 C51.39 54 78.78 54 107 54 C107 61.59 107 69.18 107 77 C71.69 77 36.38 77 0 77 C0 51.59 0 26.18 0 0 Z " fill="#172439" transform="translate(1330,954)"/>
<path d="M0 0 C32.34 0 64.68 0 98 0 C98 7.26 98 14.52 98 22 C73.58 22 49.16 22 24 22 C24 32.23 24 42.46 24 53 C51.39 53 78.78 53 107 53 C107 60.59 107 68.18 107 76 C71.69 76 36.38 76 0 76 C0 50.92 0 25.84 0 0 Z " fill="#6E8DB1" transform="translate(1002,771)"/>
<path d="M0 0 C7.92 0 15.84 0 24 0 C24 35.64 24 71.28 24 108 C48.42 108 72.84 108 98 108 C98 115.26 98 122.52 98 130 C65.66 130 33.32 130 0 130 C0 87.1 0 44.2 0 0 Z " fill="#728FB3" transform="translate(1139,717)"/>
<path d="M0 0 C33.33 0 66.66 0 101 0 C101 7.59 101 15.18 101 23 C75.59 23 50.18 23 24 23 C24 40.16 24 57.32 24 75 C16.08 75 8.16 75 0 75 C0 50.25 0 25.5 0 0 Z " fill="#172236" transform="translate(720,955)"/>
<path d="M0 0 C32.67 0 65.34 0 99 0 C99 7.26 99 14.52 99 22 C73.92 22 48.84 22 23 22 C23 39.49 23 56.98 23 75 C15.41 75 7.82 75 0 75 C0 50.25 0 25.5 0 0 Z " fill="#6E8DB0" transform="translate(720,772)"/>
<path d="M0 0 C34.98 0 69.96 0 106 0 C106 7.59 106 15.18 106 23 C71.02 23 36.04 23 0 23 C0 15.41 0 7.82 0 0 Z " fill="#182336" transform="translate(720,899)"/>
<path d="M0 0 C34.98 0 69.96 0 106 0 C106 7.59 106 15.18 106 23 C71.02 23 36.04 23 0 23 C0 15.41 0 7.82 0 0 Z " fill="#172338" transform="translate(1330,899)"/>
<path d="M0 0 C34.65 0 69.3 0 105 0 C105 7.59 105 15.18 105 23 C70.35 23 35.7 23 0 23 C0 15.41 0 7.82 0 0 Z " fill="#7A96B3" transform="translate(1002,717)"/>
<path d="M0 0 C34.32 0 68.64 0 104 0 C104 7.26 104 14.52 104 22 C69.68 22 35.36 22 0 22 C0 14.74 0 7.48 0 0 Z " fill="#7995B3" transform="translate(720,717)"/>
<path d="M0 0 C0.33 0 0.66 0 1 0 C1.03738281 1.26070312 1.07476562 2.52140625 1.11328125 3.8203125 C1.81284322 23.77035527 4.25188235 42.50441309 10.24780273 61.58251953 C11.04122375 64.13248866 11.78775933 66.69401457 12.53515625 69.2578125 C13.60955329 72.84519415 14.83566007 76.23225051 16.4375 79.625 C17.08525391 81.00365234 17.08525391 81.00365234 17.74609375 82.41015625 C19.1304595 85.26945374 20.52077663 88.12345502 21.96484375 90.953125 C22.74535953 92.49648451 23.504816 94.05052053 24.25390625 95.609375 C24.90166016 96.94742188 24.90166016 96.94742188 25.5625 98.3125 C26.15224609 99.54419922 26.15224609 99.54419922 26.75390625 100.80078125 C27.87015338 103.00090396 27.87015338 103.00090396 29.45703125 104.44921875 C31.54879092 106.55156961 32.7289479 108.89029456 34.125 111.5 C34.90230469 112.93859375 34.90230469 112.93859375 35.6953125 114.40625 C37 117 37 117 38 120 C38.99 120 39.98 120 41 120 C42.375 122.0625 42.375 122.0625 44 125 C44.8367312 126.26173753 45.6917272 127.51151083 46.5625 128.75 C46.97628906 129.34296875 47.39007813 129.9359375 47.81640625 130.546875 C48.95597583 132.14926383 48.95597583 132.14926383 51 133 C51 133.66 51 134.32 51 135 C51.99 135.33 52.98 135.66 54 136 C54.33 136.99 54.66 137.98 55 139 C55.99 139.66 56.98 140.32 58 141 C58 141.66 58 142.32 58 143 C58.66 143 59.32 143 60 143 C60 143.66 60 144.32 60 145 C60.66 145 61.32 145 62 145 C62 145.66 62 146.32 62 147 C62.66 147 63.32 147 64 147 C64 147.66 64 148.32 64 149 C65.175625 149.37125 65.175625 149.37125 66.375 149.75 C69.32317108 151.15389099 69.9024777 152.00675737 71 155 C71.99 155 72.98 155 74 155 C74 155.66 74 156.32 74 157 C74.99 157.33 75.98 157.66 77 158 C77 158.66 77 159.32 77 160 C77.57363281 160.10441406 78.14726562 160.20882813 78.73828125 160.31640625 C81.36393759 161.10999841 83.01647807 162.27155634 85.1875 163.9375 C85.88230469 164.46214844 86.57710938 164.98679687 87.29296875 165.52734375 C89 167 89 167 90 169 C90.825 169.4125 91.65 169.825 92.5 170.25 C96.19131922 172.09565961 99.46027589 174.25945338 102.8515625 176.59765625 C106.60320611 179.04645635 108.39274052 180 113 180 C115.359375 181.09375 115.359375 181.09375 117.75 182.5 C118.54921875 182.9640625 119.3484375 183.428125 120.171875 183.90625 C120.77515625 184.2671875 121.3784375 184.628125 122 185 C121.34 185.66 120.68 186.32 120 187 C94.55251998 185.70849256 64.06634113 152.30162149 48 135 C44.06898846 130.52643564 40.48388365 125.82595258 37 121 C35.83791016 119.42025391 35.83791016 119.42025391 34.65234375 117.80859375 C21.75825294 99.78340676 12.40474228 80.17016609 6 59 C5.80277344 58.3503125 5.60554687 57.700625 5.40234375 57.03125 C4.11767566 52.71907739 3.01786213 48.38221173 2 44 C1.76555176 43.02039307 1.76555176 43.02039307 1.52636719 42.02099609 C-1.71361404 28.00455557 -0.94692466 14.27186278 0 0 Z " fill="#3D5E90" transform="translate(203,920)"/>
<path d="M0 0 C0.33 0 0.66 0 1 0 C2.1920863 26.19278516 -24.86782796 57.73493937 -41.54541016 76.03344727 C-44.00828376 78.70987142 -46.50010975 81.35818648 -49 84 C-49.63808594 84.680625 -50.27617188 85.36125 -50.93359375 86.0625 C-72.23056854 108.12555302 -101.49542617 124.19528675 -130.4375 133.625 C-131.22447266 133.88514893 -132.01144531 134.14529785 -132.82226562 134.41333008 C-136.89683482 135.6672832 -139.80400173 136.38476285 -144 135 C-140.1762884 132.81215452 -136.02430984 131.79624246 -131.8125 130.625 C-124.30533586 128.46703513 -117.56049885 125.81499597 -110.59765625 122.265625 C-109.67762817 121.79938721 -109.67762817 121.79938721 -108.73901367 121.32373047 C-106.96443039 120.42051755 -105.19685198 119.50358073 -103.4296875 118.5859375 C-99.9425506 116.97343456 -96.70854662 115.95308705 -93 115 C-93 114.34 -93 113.68 -93 113 C-91.12986004 111.77970427 -89.20149253 110.64795936 -87.25 109.5625 C-83.64445913 107.54635818 -80.26426246 105.52998516 -77 103 C-76.236875 102.566875 -75.47375 102.13375 -74.6875 101.6875 C-70.17485923 98.85398138 -66.323219 95.323219 -62.5625 91.5625 C-58.38908117 87.38908117 -53.97258023 83.47943517 -49.25 79.9375 C-46.82805341 78.03041087 -46.82805341 78.03041087 -45.0625 75.0625 C-43 72 -43 72 -40.16796875 69.734375 C-36.77847023 66.98907188 -34.5853471 63.83698841 -32.25 60.1875 C-30.88413726 58.07018435 -29.49043841 56.03593886 -28 54 C-27.34 54 -26.68 54 -26 54 C-26 53.01 -26 52.02 -26 51 C-25.34 51 -24.68 51 -24 51 C-24 50.01 -24 49.02 -24 48 C-23.34 48 -22.68 48 -22 48 C-21.690625 46.824375 -21.690625 46.824375 -21.375 45.625 C-19.82940899 41.55026007 -17.75885055 38.138381 -15.4375 34.46484375 C-14.02055798 32.03525023 -12.97640489 29.63347664 -12 27 C-11.34 27 -10.68 27 -10 27 C-9.608125 25.7625 -9.21625 24.525 -8.8125 23.25 C-7.18772452 18.35246247 -5.21999427 13.63344461 -3.18359375 8.89453125 C-1.9856602 5.96493139 -0.96842928 3.01239521 0 0 Z " fill="#44689A" transform="translate(585,980)"/>
<path d="M0 0 C0.99 0.99 0.99 0.99 2 2 C-12.67127386 16.85753026 -12.67127386 16.85753026 -17.375 20.8125 C-22.05173738 24.78672318 -25.97749137 29.37920686 -30 34 C-30.92625388 35.02939278 -31.85337285 36.05800766 -32.78125 37.0859375 C-54.61178548 61.54529996 -70.99491582 91.16757606 -79 123 C-79.48146484 124.87751953 -79.48146484 124.87751953 -79.97265625 126.79296875 C-84.20516759 146.42000971 -83.66686753 167.73797876 -78.48730469 187.09765625 C-77.76040961 189.93531481 -77.25261432 192.80293083 -76.75 195.6875 C-76.60046875 196.53699219 -76.4509375 197.38648438 -76.296875 198.26171875 C-76.19890625 198.83535156 -76.1009375 199.40898438 -76 200 C-76.66 199.34 -77.32 198.68 -78 198 C-78 196.68 -78 195.36 -78 194 C-78.66 194 -79.32 194 -80 194 C-83.80076128 179.99905613 -84.80785984 166.47369929 -85 152 C-85.02553955 151.16275391 -85.0510791 150.32550781 -85.07739258 149.46289062 C-85.21306234 142.97646156 -84.35402537 136.8713495 -83.1875 130.5 C-83.02185547 129.53191406 -82.85621094 128.56382812 -82.68554688 127.56640625 C-81.55513962 121.21053149 -79.93885456 115.15141335 -78 109 C-77.70738281 107.92492187 -77.41476562 106.84984375 -77.11328125 105.7421875 C-74.5415691 96.53420351 -70.42535241 88.41966401 -66 80 C-65.32911728 78.66878304 -64.65985536 77.3367173 -64 76 C-63.34 76 -62.68 76 -62 76 C-61.90976562 75.29230469 -61.81953125 74.58460938 -61.7265625 73.85546875 C-60.85385461 70.4256329 -59.38616584 68.22053709 -57.375 65.3125 C-56.64925781 64.25804687 -55.92351562 63.20359375 -55.17578125 62.1171875 C-54.45777344 61.08851563 -53.73976563 60.05984375 -53 59 C-52.41605469 58.13632812 -51.83210938 57.27265625 -51.23046875 56.3828125 C-47.46588453 50.86377334 -43.3843038 45.67881647 -39.11328125 40.54296875 C-37.65371143 38.78662873 -36.2365039 36.99452154 -34.85546875 35.17578125 C-34.24316406 34.45777344 -33.63085938 33.73976563 -33 33 C-32.34 33 -31.68 33 -31 33 C-30.9175 32.4225 -30.835 31.845 -30.75 31.25 C-29.78202213 28.3460664 -28.31305716 26.96259396 -26 25 C-25.34 25 -24.68 25 -24 25 C-24 24.34 -24 23.68 -24 23 C-22.42578125 21.44921875 -22.42578125 21.44921875 -20.3125 19.6875 C-17.92515729 17.66035285 -15.65468039 15.65468039 -13.4375 13.4375 C-11.4926968 11.4926968 -9.54533075 9.75503704 -7.4375 8 C-4.56771351 5.58135899 -2.23187489 3.03534984 0 0 Z " fill="#3C5679" transform="translate(375,862)"/>
<path d="M0 0 C0.33 0 0.66 0 1 0 C1.98377116 6.53578073 2.13072647 12.8970545 2.09765625 19.5 C2.0962413 20.57628662 2.09482635 21.65257324 2.09336853 22.76147461 C2.0878038 26.17434555 2.07525787 29.58714913 2.0625 33 C2.05748044 35.3242178 2.05291833 37.64843663 2.04882812 39.97265625 C2.03784593 45.6484602 2.0211432 51.32422529 2 57 C3.08391022 56.99777939 4.16782043 56.99555878 5.28457642 56.99327087 C15.55208267 56.9729063 25.81958476 56.95796414 36.0871067 56.94818783 C41.36439487 56.94299262 46.6416666 56.93595678 51.91894531 56.92456055 C57.02180516 56.91361125 62.12464929 56.90769791 67.22751999 56.90512276 C69.16412986 56.90329004 71.10073898 56.89971172 73.03734207 56.89426994 C83.7556061 56.86537866 94.31444399 57.07374754 105 58 C105 51.4 105 44.8 105 38 C82.23 38 59.46 38 36 38 C36 37.67 36 37.34 36 37 C59.1 37 82.2 37 106 37 C106 44.26 106 51.52 106 59 C71.02 59 36.04 59 0 59 C0 39.53 0 20.06 0 0 Z " fill="#748CA6" transform="translate(1002,788)"/>
<path d="M0 0 C30.03 0 60.06 0 91 0 C90.67 0.66 90.34 1.32 90 2 C60.96 1.67 31.92 1.34 2 1 C2 7.6 2 14.2 2 21 C35.99 21 69.98 21 105 21 C105 21.66 105 22.32 105 23 C70.35 23 35.7 23 0 23 C0 15.41 0 7.82 0 0 Z " fill="#8A9CAF" transform="translate(1002,717)"/>
<path d="M0 0 C32.67 0 65.34 0 99 0 C99 3.63 99 7.26 99 11 C98.67 11 98.34 11 98 11 C98 7.7 98 4.4 98 1 C50.975 1.495 50.975 1.495 3 2 C1.56655548 4.86688904 1.83545941 7.35676078 1.79467773 10.56103516 C1.78477814 11.23432358 1.77487854 11.907612 1.76467896 12.6013031 C1.73304885 14.83052026 1.70830066 17.05975874 1.68359375 19.2890625 C1.66302552 20.83320678 1.64202908 22.37734541 1.62062073 23.92147827 C1.56538651 27.98864167 1.51598322 32.05585599 1.46777344 36.12310791 C1.41756825 40.27222229 1.36187707 44.42126259 1.30664062 48.5703125 C1.19904252 56.71348077 1.0981081 64.85671186 1 73 C10.9 72.505 10.9 72.505 21 72 C21.33 55.83 21.66 39.66 22 23 C22.33 23 22.66 23 23 23 C23 40.16 23 57.32 23 75 C15.41 75 7.82 75 0 75 C0 50.25 0 25.5 0 0 Z " fill="#7289A2" transform="translate(720,772)"/>
<path d="M0 0 C34.32 0 68.64 0 104 0 C104 7.26 104 14.52 104 22 C69.68 22 35.36 22 0 22 C0 14.74 0 7.48 0 0 Z M1 4 C0.83143146 6.74852428 0.7666866 9.38101859 0.8125 12.125 C0.81314453 12.86621094 0.81378906 13.60742188 0.81445312 14.37109375 C0.51645638 17.98330042 0.51645638 17.98330042 2 21 C5.13559886 21.09534958 8.24913613 21.12550879 11.38500977 21.11352539 C12.37026642 21.11367142 13.35552307 21.11381744 14.37063599 21.1139679 C17.64424807 21.11326832 20.91780404 21.10547385 24.19140625 21.09765625 C26.45442168 21.09579223 28.71743751 21.09436825 30.98045349 21.09336853 C36.94978948 21.0895421 42.91910132 21.07971075 48.88842773 21.06866455 C54.97444329 21.05845312 61.06046273 21.05387149 67.14648438 21.04882812 C79.0976686 21.03808859 91.04882851 21.02049078 103 21 C103 14.4 103 7.8 103 1 C89.99616709 0.93232593 76.9924504 0.87724276 63.98848152 0.84456348 C57.95075076 0.82888212 51.91314632 0.80759878 45.87548828 0.77368164 C40.05296455 0.74117632 34.23056261 0.72316562 28.40795517 0.71536827 C26.1823014 0.70980886 23.95665457 0.6989533 21.7310524 0.68280983 C18.62279912 0.66115298 15.5150544 0.65802815 12.40673828 0.65942383 C11.47885498 0.648638 10.55097168 0.63785217 9.5949707 0.6267395 C8.75080597 0.63086349 7.90664124 0.63498749 7.03689575 0.63923645 C6.30130495 0.63647107 5.56571415 0.63370569 4.80783272 0.63085651 C2.58180654 0.86434863 2.58180654 0.86434863 1 4 Z " fill="#788DA3" transform="translate(720,717)"/>
<path d="M0 0 C0.99 0 1.98 0 3 0 C4.375 2.0625 4.375 2.0625 6 5 C6.8367312 6.26173753 7.6917272 7.51151083 8.5625 8.75 C8.97628906 9.34296875 9.39007813 9.9359375 9.81640625 10.546875 C10.95597583 12.14926383 10.95597583 12.14926383 13 13 C13 13.66 13 14.32 13 15 C13.99 15.33 14.98 15.66 16 16 C16.33 16.99 16.66 17.98 17 19 C17.99 19.66 18.98 20.32 20 21 C20 21.66 20 22.32 20 23 C20.66 23 21.32 23 22 23 C22 23.66 22 24.32 22 25 C22.66 25 23.32 25 24 25 C24 25.66 24 26.32 24 27 C24.66 27 25.32 27 26 27 C26 27.66 26 28.32 26 29 C26.78375 29.2475 27.5675 29.495 28.375 29.75 C31.32317108 31.15389099 31.9024777 32.00675737 33 35 C33.99 35 34.98 35 36 35 C36 35.66 36 36.32 36 37 C36.99 37.33 37.98 37.66 39 38 C39 38.66 39 39.32 39 40 C39.57363281 40.10441406 40.14726562 40.20882813 40.73828125 40.31640625 C43.36393759 41.10999841 45.01647807 42.27155634 47.1875 43.9375 C47.88230469 44.46214844 48.57710938 44.98679687 49.29296875 45.52734375 C51 47 51 47 52 49 C52.825 49.4125 53.65 49.825 54.5 50.25 C58.19131922 52.09565961 61.46027589 54.25945338 64.8515625 56.59765625 C68.60320611 59.04645635 70.39274052 60 75 60 C77.359375 61.09375 77.359375 61.09375 79.75 62.5 C80.54921875 62.9640625 81.3484375 63.428125 82.171875 63.90625 C82.77515625 64.2671875 83.3784375 64.628125 84 65 C83.34 65.66 82.68 66.32 82 67 C56.59758705 65.71077979 26.0062196 32.31088621 10 15 C0 3.47485573 0 3.47485573 0 0 Z " fill="#3D5785" transform="translate(241,1040)"/>
<path d="M0 0 C0.66 0.33 1.32 0.66 2 1 C1.71125 2.0725 1.4225 3.145 1.125 4.25 C-0.26097508 9.77424109 -1.10816312 15.37917932 -2 21 C-2.17402344 22.00804687 -2.34804687 23.01609375 -2.52734375 24.0546875 C-5.95541455 43.2247656 -5.95541455 43.2247656 -4 62 C-3.79488417 64.58673851 -3.62763347 67.15951318 -3.5 69.75 C-3.11266194 77.43937779 -2.23803466 84.58703017 0 92 C0.29519531 93.09699219 0.59039062 94.19398438 0.89453125 95.32421875 C2.81500083 102.36049241 5.08702803 108.94813405 8.14453125 115.57421875 C9 118 9 118 8 121 C3.96236802 113.67244566 1.51483694 105.93981963 -1 98 C-1.31324219 97.05125 -1.62648437 96.1025 -1.94921875 95.125 C-3.48087019 90.34325891 -4.41315569 85.8245908 -4.7890625 80.8125 C-4.90707367 78.9018356 -4.90707367 78.9018356 -6 77 C-7.18990225 67.50498969 -7.1532342 57.92757028 -7.125 48.375 C-7.12857304 47.014322 -7.13247785 45.65364483 -7.13671875 44.29296875 C-7.13542969 43.00777344 -7.13414062 41.72257813 -7.1328125 40.3984375 C-7.13168457 39.24005371 -7.13055664 38.08166992 -7.12939453 36.88818359 C-7 34 -7 34 -6 31 C-5.87108226 29.27250231 -5.77103106 27.54278628 -5.6875 25.8125 C-5.03138889 17.01415759 -2.78624926 8.35874778 0 0 Z " fill="#2B528B" transform="translate(253,920)"/>
<path d="M0 0 C4.62 0 9.24 0 14 0 C10.3350733 2.44328447 8.30956914 2 4 2 C1.64456519 3.91654484 1.64456519 3.91654484 1.78088379 7.27561951 C1.78457589 8.71041922 1.79927215 10.14521377 1.82226562 11.57983398 C1.82648529 12.36387918 1.83070496 13.14792439 1.83505249 13.95572853 C1.84508416 15.66847872 1.85954308 17.38120721 1.87782288 19.09388924 C1.92672751 23.76413435 1.94137218 28.43453641 1.9609375 33.10498047 C1.96837353 34.57011817 1.96837353 34.57011817 1.97595978 36.06485462 C2.02279717 46.57715845 1.91250866 57.0862964 1.78125 67.59765625 C1.75869197 69.46796653 1.73614965 71.33827699 1.71362305 73.20858765 C1.65656555 77.87842425 1.59680927 82.5482228 1.53643799 87.21801758 C1.47422798 92.0743582 1.41500409 96.93073536 1.35546875 101.78710938 C1.23976892 111.19144248 1.12098209 120.59573346 1 130 C0.67 130 0.34 130 0 130 C0 87.1 0 44.2 0 0 Z " fill="#8193A9" transform="translate(1139,717)"/>
<path d="M0 0 C0.99 0.33 1.98 0.66 3 1 C-1.02034918 5.4439645 -5.37117592 8.29772673 -10.5625 11.25 C-11.39458984 11.72526123 -12.22667969 12.20052246 -13.08398438 12.69018555 C-25.3580344 19.57307746 -38.05438832 25.26460391 -51.4375 29.625 C-52.22447266 29.88514893 -53.01144531 30.14529785 -53.82226562 30.41333008 C-57.89683482 31.6672832 -60.80400173 32.38476285 -65 31 C-61.1762884 28.81215452 -57.02430984 27.79624246 -52.8125 26.625 C-45.30533586 24.46703513 -38.56049885 21.81499597 -31.59765625 18.265625 C-30.9843042 17.9547998 -30.37095215 17.64397461 -29.73901367 17.32373047 C-27.96443039 16.42051755 -26.19685198 15.50358073 -24.4296875 14.5859375 C-20.9425506 12.97343456 -17.70854662 11.95308705 -14 11 C-14 10.34 -14 9.68 -14 9 C-12.087288 7.7599543 -10.11787422 6.60663133 -8.125 5.5 C-3.77382622 3.13228841 -3.77382622 3.13228841 0 0 Z " fill="#416294" transform="translate(506,1084)"/>
<path d="M0 0 C0.66 0.33 1.32 0.66 2 1 C2.62037352 3.73973569 3.12734972 6.41773392 3.5625 9.1875 C3.68818359 9.94353516 3.81386719 10.69957031 3.94335938 11.47851562 C4.19011784 12.9681099 4.43206001 14.4585108 4.66894531 15.94970703 C4.95165263 17.7005743 5.26383038 19.44664041 5.58203125 21.19140625 C6.80210037 29.38981466 6.01407564 37.81496088 5 46 C4.34 46 3.68 46 3 46 C3.04511719 46.98226562 3.09023438 47.96453125 3.13671875 48.9765625 C3.13121683 53.35388892 2.08444745 57.21153886 0.8125 61.375 C0.59053955 62.1187085 0.3685791 62.86241699 0.13989258 63.62866211 C-1.58025327 69.16275524 -3.76296141 74.16510406 -7 79 C-8 76 -8 76 -6.890625 73.25 C-6.34921875 72.1775 -5.8078125 71.105 -5.25 70 C3.51336792 51.55829536 2.73036365 31.77014023 1 11.8125 C0.90460937 10.66974609 0.80921875 9.52699219 0.7109375 8.34960938 C0.47800271 5.56603862 0.24095912 2.78288561 0 0 Z " fill="#E6FCFB" transform="translate(543,729)"/>
<path d="M0 0 C0.495 1.485 0.495 1.485 1 3 C0.28714844 3.70125 -0.42570312 4.4025 -1.16015625 5.125 C-6.04584372 9.95596504 -10.79593133 14.80862764 -15.2578125 20.0390625 C-17.97720645 23.09990502 -20.91995326 25.92868306 -23.8359375 28.80078125 C-25.70647817 30.70170976 -27.42150698 32.63894045 -29.125 34.6875 C-33.20517344 39.46685809 -37.88477835 43.59838928 -42.50561523 47.84179688 C-46.47744535 51.51100663 -50.20857559 55.22883634 -53.60546875 59.44921875 C-55.23025359 61.25605231 -57.02182843 62.59791265 -59 64 C-58.581969 59.54896521 -55.50101842 57.13868353 -52.4609375 54.203125 C-51.90185699 53.65066101 -51.34277649 53.09819702 -50.76675415 52.5289917 C-48.97646569 50.7620823 -47.17637166 49.00560265 -45.375 47.25 C-43.02484446 44.94655324 -40.67901552 42.63876972 -38.3359375 40.328125 C-37.76941467 39.7702832 -37.20289185 39.21244141 -36.61920166 38.63769531 C-33.11847305 35.17017897 -29.80927854 31.60467409 -26.61962891 27.84667969 C-22.76634228 23.45321269 -18.48342266 19.44794104 -14.31640625 15.35546875 C-10.1411642 11.2255277 -6.15511075 7.00624273 -2.33007812 2.54882812 C-1.58012032 1.67552924 -0.81396795 0.81396795 0 0 Z " fill="#79ABB8" transform="translate(382,679)"/>
<path d="M0 0 C0.66 0.33 1.32 0.66 2 1 C3.47525104 7.01234387 3.12264665 13.64481451 3.1875 19.8125 C3.20055176 20.54146484 3.21360352 21.27042969 3.22705078 22.02148438 C3.23377646 26.19909319 2.75204324 29.23008626 1 33 C0.22055128 35.39304431 -0.54950449 37.78915906 -1.3125 40.1875 C-3.36413407 46.45158008 -5.83905877 52.20494108 -9 58 C-9.55945313 59.07378906 -10.11890625 60.14757812 -10.6953125 61.25390625 C-13.80061726 67.16205102 -16.99800652 72.6640087 -21 78 C-21.556875 78.94875 -22.11375 79.8975 -22.6875 80.875 C-24 83 -24 83 -26 84 C-24.72088915 80.62302826 -23.26110497 77.55317578 -21.42578125 74.4453125 C-20.9263501 73.59114746 -20.42691895 72.73698242 -19.91235352 71.85693359 C-19.12042603 70.50462646 -19.12042603 70.50462646 -18.3125 69.125 C-4.968666 45.93200352 1.12456956 26.95160698 0 0 Z " fill="#9DCED0" transform="translate(273,713)"/>
<path d="M0 0 C3.27737198 1.63868599 4.17110767 5.18099698 5.6875 8.375 C15.12637346 27.62373495 27.91353249 44.11560091 48 53 C44.55844197 54.14718601 43.87178394 53.85001224 40.5859375 52.63671875 C39.74289062 52.32669922 38.89984375 52.01667969 38.03125 51.69726562 C36.71640625 51.19743164 36.71640625 51.19743164 35.375 50.6875 C34.49070312 50.36587891 33.60640625 50.04425781 32.6953125 49.71289062 C26.13059509 47.26119018 26.13059509 47.26119018 25 45 C25.99 44.505 25.99 44.505 27 44 C25.69713304 41.08107691 24.37832246 39.24033488 22 37.125 C12.27944052 27.60653116 5.27518369 15.45120173 0 3 C0 2.01 0 1.02 0 0 Z " fill="#354562" transform="translate(299,1062)"/>
<path d="M0 0 C0.66 0.66 1.32 1.32 2 2 C-12.67127386 16.85753026 -12.67127386 16.85753026 -17.375 20.8125 C-22.05075297 24.78588664 -25.98422878 29.37463597 -30 34 C-31.00902891 35.14590878 -32.01814805 36.29173811 -33.02734375 37.4375 C-38.48811835 43.6797128 -43.70148927 49.87352168 -48 57 C-48.66 56.67 -49.32 56.34 -50 56 C-46.84222943 49.31727624 -41.83960129 43.74254461 -37.25 38 C-36.49203125 37.05125 -35.7340625 36.1025 -34.953125 35.125 C-34.30859375 34.42375 -33.6640625 33.7225 -33 33 C-32.34 33 -31.68 33 -31 33 C-30.9175 32.4225 -30.835 31.845 -30.75 31.25 C-29.78202213 28.3460664 -28.31305716 26.96259396 -26 25 C-25.34 25 -24.68 25 -24 25 C-24 24.34 -24 23.68 -24 23 C-22.42578125 21.44921875 -22.42578125 21.44921875 -20.3125 19.6875 C-17.92515729 17.66035285 -15.65468039 15.65468039 -13.4375 13.4375 C-11.4926968 11.4926968 -9.54533075 9.75503704 -7.4375 8 C-4.56771351 5.58135899 -2.23187489 3.03534984 0 0 Z " fill="#4E708F" transform="translate(375,862)"/>
<path d="M0 0 C-2.9254042 1.95026947 -4.36153266 2.42978292 -7.71875 3.03515625 C-9.11867188 3.28942383 -9.11867188 3.28942383 -10.546875 3.54882812 C-11.52140625 3.71833984 -12.4959375 3.88785156 -13.5 4.0625 C-14.44359375 4.23587891 -15.3871875 4.40925781 -16.359375 4.58789062 C-26.48142322 6.39243611 -36.41246155 7.16240688 -46.6875 7.0625 C-47.59177734 7.05798828 -48.49605469 7.05347656 -49.42773438 7.04882812 C-51.61851938 7.03723667 -53.80926944 7.01931104 -56 7 C-52.92126741 4.9475116 -50.75138935 4.29373002 -47.1875 3.4375 C-46.17042969 3.18871094 -45.15335937 2.93992187 -44.10546875 2.68359375 C-43.08066406 2.45800781 -42.05585938 2.23242188 -41 2 C-39.44732422 1.64615234 -39.44732422 1.64615234 -37.86328125 1.28515625 C-34.6278329 0.96293561 -33.79392402 1.5518968 -31 3 C-22.70404048 3.2271384 -14.71234728 1.68988991 -6.7421875 -0.4765625 C-4.02749022 -0.99475258 -2.5676168 -0.92139359 0 0 Z " fill="#556E92" transform="translate(441,1116)"/>
<path d="M0 0 C0.33 0 0.66 0 1 0 C1.90277479 19.83596828 -15.5890914 43.64192175 -27 59 C-27.33 59 -27.66 59 -28 59 C-28 57.35 -28 55.7 -28 54 C-27.34 54 -26.68 54 -26 54 C-26 53.01 -26 52.02 -26 51 C-25.34 51 -24.68 51 -24 51 C-24 50.01 -24 49.02 -24 48 C-23.34 48 -22.68 48 -22 48 C-21.690625 46.824375 -21.690625 46.824375 -21.375 45.625 C-19.82940899 41.55026007 -17.75885055 38.138381 -15.4375 34.46484375 C-14.02055798 32.03525023 -12.97640489 29.63347664 -12 27 C-11.34 27 -10.68 27 -10 27 C-9.608125 25.7625 -9.21625 24.525 -8.8125 23.25 C-7.18772452 18.35246247 -5.21999427 13.63344461 -3.18359375 8.89453125 C-1.9856602 5.96493139 -0.96842928 3.01239521 0 0 Z " fill="#5179A7" transform="translate(585,980)"/>
<path d="M0 0 C32.34 0 64.68 0 98 0 C98 6.93 98 13.86 98 21 C96.515 20.505 96.515 20.505 95 20 C95.33 19.34 95.66 18.68 96 18 C96.23274209 15.12089412 96.41972757 12.25853505 96.5625 9.375 C96.62727539 8.17230469 96.62727539 8.17230469 96.69335938 6.9453125 C96.79951457 4.9637489 96.90026855 2.98189729 97 1 C84.76113504 1.10732489 72.52233122 1.21992175 60.28357792 1.33933926 C54.6012629 1.39461585 48.91894278 1.44804329 43.23657227 1.49731445 C37.75766291 1.54488831 32.27881832 1.59722831 26.79998589 1.65294075 C24.70472249 1.67339603 22.60944132 1.69210374 20.5141468 1.70907402 C17.59017602 1.73304804 14.66632889 1.76311178 11.74243164 1.79467773 C10.8670575 1.8004332 9.99168335 1.80618866 9.08978271 1.81211853 C5.23309955 1.48362933 5.23309955 1.48362933 2 3 C1.76572222 5.01594582 1.58663876 7.038474 1.4375 9.0625 C1.35371094 10.16722656 1.26992188 11.27195312 1.18359375 12.41015625 C1.12300781 13.26480469 1.06242188 14.11945312 1 15 C0.67 15 0.34 15 0 15 C0 10.05 0 5.1 0 0 Z " fill="#70879F" transform="translate(1002,771)"/>
<path d="M0 0 C0.495 1.485 0.495 1.485 1 3 C0.3503125 3.69867187 -0.299375 4.39734375 -0.96875 5.1171875 C-1.8040625 6.02726562 -2.639375 6.93734375 -3.5 7.875 C-4.3353125 8.77992187 -5.170625 9.68484375 -6.03125 10.6171875 C-8.21231559 12.74181632 -8.21231559 12.74181632 -8 15 C-9.5390625 16.55078125 -9.5390625 16.55078125 -11.625 18.3125 C-12.35203125 18.93253906 -13.0790625 19.55257813 -13.828125 20.19140625 C-15.66758999 21.72319094 -17.5189177 23.23848743 -19.375 24.75 C-22.13662624 26.91163165 -22.13662624 26.91163165 -24 30 C-29.23106178 33.1855142 -33.9283931 34.5167325 -40 34 C-40 33.34 -40 32.68 -40 32 C-38.94941406 31.50371094 -37.89882813 31.00742188 -36.81640625 30.49609375 C-21.38178612 23.08041354 -10.23697927 13.81992202 0 0 Z " fill="#2D446D" transform="translate(446,1084)"/>
<path d="M0 0 C32.34 0 64.68 0 98 0 C98 0.33 98 0.66 98 1 C96.81205338 1.01030746 95.62410675 1.02061493 94.40016174 1.03123474 C83.23086589 1.12878933 72.06162798 1.2315059 60.89242649 1.33933926 C55.1495771 1.39461613 49.40672267 1.4480436 43.66381836 1.49731445 C38.1265548 1.5448879 32.58935533 1.59722789 27.05216789 1.65294075 C24.93457564 1.67339622 22.81696578 1.69210389 20.69934273 1.70907402 C17.74423961 1.73304763 14.78925886 1.76311143 11.83422852 1.79467773 C10.94950363 1.8004332 10.06477875 1.80618866 9.15324402 1.81211853 C5.26300121 1.47803152 5.26300121 1.47803152 2 3 C1.84111908 5.28988781 1.74861927 7.58443441 1.68359375 9.87890625 C1.66281265 10.5655687 1.64203156 11.25223114 1.62062073 11.95970154 C1.55505857 14.16052935 1.49620985 16.36147975 1.4375 18.5625 C1.39432108 20.05144514 1.350707 21.54037773 1.30664062 23.02929688 C1.1993707 26.68606553 1.09812228 30.34297318 1 34 C0.67 34 0.34 34 0 34 C0 22.78 0 11.56 0 0 Z " fill="#111B29" transform="translate(1330,954)"/>
<path d="M0 0 C0.33 0 0.66 0 1 0 C1.12068779 7.60333098 0.77627087 14.80404947 -1 22.21484375 C-2.53230957 29.76415236 -2.46664603 37.45143056 -2.625 45.125 C-2.66326676 46.66929076 -2.70232323 48.21356216 -2.7421875 49.7578125 C-2.83722467 53.50502913 -2.92159287 57.25239417 -3 61 C-3.33 61 -3.66 61 -4 61 C-7.62144214 41.4297628 -5.49717645 19.02023052 0 0 Z " fill="#5C7EA7" transform="translate(206,881)"/>
<path d="M0 0 C0.33 0 0.66 0 1 0 C0.97905273 1.0516333 0.95810547 2.1032666 0.93652344 3.18676758 C0.28795814 30.36607235 0.28795814 30.36607235 5 57 C5.44380898 59.22392192 5.86450256 61.45273226 6.25 63.6875 C6.47429687 64.96173828 6.47429687 64.96173828 6.703125 66.26171875 C6.80109375 66.83535156 6.8990625 67.40898438 7 68 C6.34 67.34 5.68 66.68 5 66 C5 64.68 5 63.36 5 62 C4.34 62 3.68 62 3 62 C-0.79933988 48.00429216 -1.82611712 34.47063535 -2 20 C-2.01611328 19.09459473 -2.03222656 18.18918945 -2.04882812 17.25634766 C-2.09830493 12.82570016 -1.99289472 8.71891438 -1 4.375 C-0.814375 3.53710938 -0.62875 2.69921875 -0.4375 1.8359375 C-0.293125 1.23007812 -0.14875 0.62421875 0 0 Z " fill="#2D4364" transform="translate(292,994)"/>
<path d="M0 0 C16.83 0 33.66 0 51 0 C51 0.33 51 0.66 51 1 C50.40087296 1.01030746 49.80174591 1.02061493 49.1844635 1.03123474 C42.97189912 1.13906965 36.75948659 1.25368544 30.54711914 1.37231445 C28.22586227 1.41573739 25.90457192 1.45740684 23.58325195 1.49731445 C20.25461722 1.5548394 16.92615215 1.61858425 13.59765625 1.68359375 C12.55287613 1.70030624 11.50809601 1.71701874 10.43165588 1.73423767 C9.47073532 1.75418289 8.50981476 1.77412811 7.51977539 1.79467773 C6.24403404 1.81799416 6.24403404 1.81799416 4.94252014 1.84178162 C2.99476202 1.78944829 2.99476202 1.78944829 2 3 C1.67 8.61 1.34 14.22 1 20 C12.88 20 24.76 20 37 20 C37 20.33 37 20.66 37 21 C24.79 21 12.58 21 0 21 C0 14.07 0 7.14 0 0 Z " fill="#101B29" transform="translate(1233,962)"/>
<path d="M0 0 C0.66 0 1.32 0 2 0 C0.80058265 7.67627101 -2.71741977 14.68971031 -5.9375 21.6875 C-8.88561054 28.17133083 -11.28719412 34.50384513 -13.11328125 41.3984375 C-14.02923097 44.08576134 -15.1764879 45.84447589 -17 48 C-16.57937331 40.3334834 -14.39137032 34.36522967 -11.3125 27.375 C-10.40412315 25.25816623 -9.49657065 23.14097853 -8.58984375 21.0234375 C-8.14753418 19.99959961 -7.70522461 18.97576172 -7.24951172 17.92089844 C-5.56034438 13.97224701 -3.9544807 9.99355366 -2.375 6 C-1.90835937 4.824375 -1.44171875 3.64875 -0.9609375 2.4375 C-0.64382813 1.633125 -0.32671875 0.82875 0 0 Z " fill="#668D9F" transform="translate(429,847)"/>
<path d="M0 0 C7.59 0 15.18 0 23 0 C22.67 1.32 22.34 2.64 22 4 C22 3.01 22 2.02 22 1 C20.72576172 1.2475 20.72576172 1.2475 19.42578125 1.5 C15.94433468 2.00812447 12.70175755 2.06426071 9.1875 2 C7.12533699 1.96271796 5.06195989 1.95280206 3 2 C1.23246465 3.76753535 1.82913939 6.31558806 1.79467773 8.71313477 C1.77473251 9.9343251 1.75478729 11.15551544 1.73423767 12.41371155 C1.71725209 13.75627513 1.70037333 15.09884007 1.68359375 16.44140625 C1.66303053 17.80761861 1.64203423 19.17382451 1.62062073 20.5400238 C1.56533465 24.14194524 1.51595437 27.74392471 1.46777344 31.34594727 C1.41760597 35.01909572 1.36189515 38.69215955 1.30664062 42.36523438 C1.19897918 49.57675132 1.09755213 56.78833847 1 64 C0.67 64 0.34 64 0 64 C0 42.88 0 21.76 0 0 Z " fill="#7A8CA3" transform="translate(852,717)"/>
<path d="M0 0 C0.33 0 0.66 0 1 0 C2.79329056 7.99090276 2.37438867 15.69086858 0.4375 23.61328125 C-0.09399466 26.06641783 -0.09399466 26.06641783 0.0546875 28.87109375 C-0.00815878 32.46679878 -0.79402494 35.32559724 -1.875 38.75 C-2.22304688 39.87921875 -2.57109375 41.0084375 -2.9296875 42.171875 C-4 45 -4 45 -6 47 C-5.81824219 45.87078125 -5.81824219 45.87078125 -5.6328125 44.71875 C-4.50374952 37.56222771 -3.51735161 30.40480173 -2.69775391 23.20703125 C-2.10707922 18.21415844 -2.10707922 18.21415844 -1 16 C-0.7677354 13.28737884 -0.58063765 10.59226874 -0.4375 7.875 C-0.37272461 6.74384766 -0.37272461 6.74384766 -0.30664062 5.58984375 C-0.2005168 3.72678112 -0.09974999 1.86341476 0 0 Z " fill="#CCEEDC" transform="translate(439,556)"/>
<path d="M0 0 C0.33 0 0.66 0 1 0 C1.03738281 1.26070312 1.07476562 2.52140625 1.11328125 3.8203125 C1.49706484 14.5735138 2.36160554 25.08359348 4.0715332 35.71337891 C4.79814635 40.42519583 5.16447505 44.28775765 4 49 C3.67 49 3.34 49 3 49 C-0.74749167 32.38110451 -1.30281933 16.96328128 0 0 Z " fill="#466B9D" transform="translate(203,920)"/>
<path d="M0 0 C-1 3 -1 3 -3.16015625 4.2109375 C-9.18912417 6.62901616 -15.26464277 8.85510275 -21.4375 10.875 C-22.11111572 11.1023584 -22.78473145 11.3297168 -23.47875977 11.56396484 C-27.35236282 12.78405063 -30.09239874 13.21971369 -34 12 C-30.17653251 9.81229419 -26.024482 8.7950713 -21.8125 7.625 C-15.19489069 5.73887242 -6.45841086 0 0 0 Z " fill="#3B5A8E" transform="translate(475,1103)"/>
<path d="M0 0 C6.6 0 13.2 0 20 0 C20 0.33 20 0.66 20 1 C18.17662109 1.09087891 18.17662109 1.09087891 16.31640625 1.18359375 C14.73175772 1.26798332 13.14712298 1.3526321 11.5625 1.4375 C10.76005859 1.47681641 9.95761719 1.51613281 9.13085938 1.55664062 C5.24760439 1.4054296 5.24760439 1.4054296 2 3 C1.8768483 4.74838835 1.82212189 6.50164504 1.79467773 8.25415039 C1.77473251 9.37523697 1.75478729 10.49632355 1.73423767 11.65138245 C1.71752518 12.8711528 1.70081268 14.09092316 1.68359375 15.34765625 C1.66281265 16.58921982 1.64203156 17.83078339 1.62062073 19.10997009 C1.56616391 22.41599123 1.51595795 25.72202245 1.46777344 29.02813721 C1.41760144 32.39967491 1.36189299 35.77112053 1.30664062 39.14257812 C1.19929962 45.76164551 1.09755802 52.3807816 1 59 C0.67 59 0.34 59 0 59 C0 39.53 0 20.06 0 0 Z " fill="#101A2C" transform="translate(721,956)"/>
<path d="M0 0 C0.99 0.495 0.99 0.495 2 1 C2.62037352 3.73973569 3.12734972 6.41773392 3.5625 9.1875 C3.68818359 9.94353516 3.81386719 10.69957031 3.94335938 11.47851562 C4.19011784 12.9681099 4.43206001 14.4585108 4.66894531 15.94970703 C4.95165263 17.7005743 5.26383038 19.44664041 5.58203125 21.19140625 C6.80210037 29.38981466 6.01407564 37.81496088 5 46 C4.67 46 4.34 46 4 46 C3.98018066 45.26885986 3.96036133 44.53771973 3.93994141 43.78442383 C3.84447086 40.46009731 3.73488034 37.13638014 3.625 33.8125 C3.5940625 32.66201172 3.563125 31.51152344 3.53125 30.32617188 C3.49257813 29.21435547 3.45390625 28.10253906 3.4140625 26.95703125 C3.3826416 25.93585205 3.3512207 24.91467285 3.31884766 23.86254883 C2.98929801 20.90391973 2.14782819 18.7283338 1 16 C0.68115234 13.96362305 0.68115234 13.96362305 0.5859375 12.01171875 C0.54726563 11.30595703 0.50859375 10.60019531 0.46875 9.87304688 C0.42234375 8.79120117 0.42234375 8.79120117 0.375 7.6875 C0.33632813 6.94693359 0.29765625 6.20636719 0.2578125 5.44335938 C0.16418295 3.62928691 0.08103149 1.81467884 0 0 Z " fill="#BAE5DB" transform="translate(543,729)"/>
<path d="M0 0 C0.33 0 0.66 0 1 0 C1.83862155 9.22483705 -1.18399916 17.33973611 -4 26 C-4.40347656 27.24265625 -4.80695312 28.4853125 -5.22265625 29.765625 C-6.13199043 32.51644236 -7.05538172 35.26113471 -8 38 C-8.33 38 -8.66 38 -9 38 C-9.57732208 29.34016882 -6.53773835 21.4407081 -3.76171875 13.34765625 C-2.33435869 8.94845935 -1.17838338 4.471171 0 0 Z " fill="#628DB3" transform="translate(595,947)"/>
<path d="M0 0 C0.33 0.99 0.66 1.98 1 3 C0.28714844 3.70125 -0.42570312 4.4025 -1.16015625 5.125 C-6.05903312 9.96901631 -10.81858741 14.84043531 -15.3046875 20.07421875 C-18.35426802 23.53837359 -21.50595307 26.97985828 -25 30 C-25.66 30 -26.32 30 -27 30 C-25.57925676 26.754387 -23.86237319 24.6373841 -21.33203125 22.171875 C-20.60306641 21.45386719 -19.87410156 20.73585938 -19.12304688 19.99609375 C-18.36056641 19.25488281 -17.59808594 18.51367188 -16.8125 17.75 C-11.28828749 12.35514893 -6.02340112 6.86481848 -1 1 C-0.67 0.67 -0.34 0.34 0 0 Z " fill="#8FC2C3" transform="translate(382,679)"/>
<path d="M0 0 C7.6297902 11.44468529 5.9713817 23.9834852 5 37 C4.01 37.495 4.01 37.495 3 38 C2.98018066 37.31486328 2.96036133 36.62972656 2.93994141 35.92382812 C2.84395322 32.78220389 2.73457599 29.6411785 2.625 26.5 C2.57859375 24.88351562 2.57859375 24.88351562 2.53125 23.234375 C2.30945617 17.1720104 1.64377822 11.83276144 0 6 C-0.125 2.5 -0.125 2.5 0 0 Z " fill="#E3F9ED" transform="translate(434,535)"/>
<path d="M0 0 C0.66 0.33 1.32 0.66 2 1 C0.97698568 6.1150716 -0.30209103 11.073382 -1.82861328 16.05712891 C-4.26690685 24.02103901 -6.03345487 31.70502312 -7 40 C-7.33 40 -7.66 40 -8 40 C-8.51453256 29.2519866 -6.51619662 20.10906529 -3 10 C-1.98148033 6.67216347 -0.98913345 3.33667685 0 0 Z " fill="#3A5072" transform="translate(301,958)"/>
<path d="M0 0 C3.6371031 0.40149839 5.98440301 2.24082091 8.875 4.375 C12.48933679 6.97881955 15.93946762 9.18344604 20 11 C16.55844197 12.14718601 15.87178394 11.85001224 12.5859375 10.63671875 C11.74289062 10.32669922 10.89984375 10.01667969 10.03125 9.69726562 C9.1546875 9.36404297 8.278125 9.03082031 7.375 8.6875 C6.04855469 8.20506836 6.04855469 8.20506836 4.6953125 7.71289062 C-1.86940491 5.26119018 -1.86940491 5.26119018 -3 3 C-1.75 1.4375 -1.75 1.4375 0 0 Z " fill="#374B6B" transform="translate(327,1104)"/>
<path d="M0 0 C0.73828125 1.68359375 0.73828125 1.68359375 1 4 C-0.51953125 6.41015625 -0.51953125 6.41015625 -2.8125 9.0625 C-3.63234375 10.01898437 -4.4521875 10.97546875 -5.296875 11.9609375 C-6.19538018 12.97620877 -7.09649296 13.9891774 -8 15 C-8.69899414 15.78358887 -8.69899414 15.78358887 -9.41210938 16.58300781 C-12.24678541 19.74807022 -15.11226318 22.88317341 -18 26 C-18.33 25.01 -18.66 24.02 -19 23 C-16.31015465 18.59843489 -13.78367633 15.74966584 -9.69140625 12.59765625 C-5.84375331 8.96326814 -2.99469527 4.34002791 0 0 Z " fill="#4B70A0" transform="translate(556,1036)"/>
<path d="M0 0 C0.99 0 1.98 0 3 0 C4.375 2.0625 4.375 2.0625 6 5 C6.8367312 6.26173753 7.6917272 7.51151083 8.5625 8.75 C8.97628906 9.34296875 9.39007813 9.9359375 9.81640625 10.546875 C10.95597583 12.14926383 10.95597583 12.14926383 13 13 C13 13.66 13 14.32 13 15 C13.99 15.33 14.98 15.66 16 16 C16.33 16.99 16.66 17.98 17 19 C17.99 19.66 18.98 20.32 20 21 C20 21.66 20 22.32 20 23 C20.66 23 21.32 23 22 23 C22 23.66 22 24.32 22 25 C22.66 25 23.32 25 24 25 C24 25.66 24 26.32 24 27 C15.77060952 23.48653877 9.74231613 14.93415436 4.375 8 C3.93720215 7.43627686 3.4994043 6.87255371 3.04833984 6.29174805 C0 2.25819164 0 2.25819164 0 0 Z " fill="#365589" transform="translate(241,1040)"/>
<path d="M0 0 C0.66 0.33 1.32 0.66 2 1 C-1.31080557 13.73386757 -9.42289336 23.23925264 -18 33 C-18.99 33.495 -18.99 33.495 -20 34 C-19.12763018 29.63815088 -17.57223966 27.40886118 -14.375 24.5 C-10.64575206 20.97490797 -8.13031721 17.30257034 -5.625 12.875 C-5.29161621 12.28912109 -4.95823242 11.70324219 -4.61474609 11.09960938 C-2.63975271 7.5005973 -1.18185878 3.9275913 0 0 Z " fill="#9ED0CD" transform="translate(542,793)"/>
<path d="M0 0 C0.66 0 1.32 0 2 0 C2.5338079 9.33175289 0.91281635 17.92550815 -1 27 C-1.33 27 -1.66 27 -2 27 C-2.125 19.375 -2.125 19.375 -1 16 C-0.96045766 13.66700175 -0.95598268 11.33291811 -1 9 C-2.98 11.64 -4.96 14.28 -7 17 C-7.66 16.67 -8.32 16.34 -9 16 C-8.60167969 15.43152344 -8.20335937 14.86304688 -7.79296875 14.27734375 C-4.61296591 9.64274107 -2.01064466 5.2500166 0 0 Z " fill="#DBF3F7" transform="translate(439,797)"/>
<path d="M0 0 C0.99 0.495 0.99 0.495 2 1 C4.17888377 8.07464731 4.18045922 15.59959963 4.1875 22.9375 C4.18830566 23.75395996 4.18911133 24.57041992 4.18994141 25.41162109 C4.15290939 29.39873443 3.9824435 33.10952374 3 37 C2.67 37 2.34 37 2 37 C1.0625644 31.52186072 0.91542917 26.29884778 1 20.75 C1.05940635 13.77447913 0.8723619 6.9321615 0 0 Z " fill="#DDF6F6" transform="translate(270,705)"/>
<path d="M0 0 C1.65 0 3.3 0 5 0 C4.27087654 0.84247284 4.27087654 0.84247284 3.52702332 1.70196533 C1.77974884 4.33145847 1.60956275 5.64853108 1.56762695 8.76855469 C1.54783279 9.70922791 1.52803864 10.64990112 1.50764465 11.61907959 C1.50125473 12.62650208 1.49486481 13.63392456 1.48828125 14.671875 C1.47033005 15.70942932 1.45237885 16.74698364 1.43388367 17.815979 C1.37973623 21.1272781 1.34587015 24.43843267 1.3125 27.75 C1.27933091 29.99611388 1.24484164 32.24220868 1.20898438 34.48828125 C1.12400729 39.99205791 1.05567613 45.49585317 1 51 C0.67 51 0.34 51 0 51 C0 34.17 0 17.34 0 0 Z " fill="#101A28" transform="translate(1020,964)"/>
<path d="M0 0 C0 0.66 0 1.32 0 2 C1.65 2.33 3.3 2.66 5 3 C5 3.66 5 4.32 5 5 C5.7425 5.2475 6.485 5.495 7.25 5.75 C10.20124062 7.09147301 11.84814974 8.60905526 14 11 C13.67 11.99 13.34 12.98 13 14 C10.5 12.625 10.5 12.625 8 11 C8 10.34 8 9.68 8 9 C7.34 9 6.68 9 6 9 C6 8.34 6 7.68 6 7 C5.34 6.7525 4.68 6.505 4 6.25 C0.23639093 4.68182955 -3.3711424 2.85494954 -7 1 C-7 0.67 -7 0.34 -7 0 C-2.25 -1.125 -2.25 -1.125 0 0 Z " fill="#CAECEA" transform="translate(277,694)"/>
<path d="M0 0 C0.33 0 0.66 0 1 0 C1.31785668 5.47419831 0.33765722 9.59629762 -1.8125 14.5625 C-2.07353516 15.19607422 -2.33457031 15.82964844 -2.60351562 16.48242188 C-4.24067366 20.40755878 -6.05903385 24.21715606 -8 28 C-8.33 28 -8.66 28 -9 28 C-9.49093431 23.0906569 -8.34456506 20.26741021 -6.08203125 16.078125 C-3.43786076 10.99979035 -1.76500861 5.43079574 0 0 Z " fill="#5781AC" transform="translate(585,980)"/>
<path d="M0 0 C0.99 0.33 1.98 0.66 3 1 C-1.82965034 6.1263524 -7.04647587 10.5902014 -12.546875 14.984375 C-14.9485288 16.87870768 -14.9485288 16.87870768 -16.703125 18.765625 C-18 20 -18 20 -20 20 C-18.56875447 16.64065168 -16.82271696 14.68207173 -14.0625 12.3125 C-13.37285156 11.71050781 -12.68320312 11.10851562 -11.97265625 10.48828125 C-10 9 -10 9 -7 8 C-7 7.34 -7 6.68 -7 6 C-5.33720673 4.9935725 -3.67016516 3.99414593 -2 3 C-1.34 2.01 -0.68 1.02 0 0 Z " fill="#5D859E" transform="translate(401,839)"/>
<path d="M0 0 C7.59 0 15.18 0 23 0 C23 2.31 23 4.62 23 7 C22.67 7 22.34 7 22 7 C21.67 5.35 21.34 3.7 21 2 C18.02077407 1.97316013 15.04178705 1.95323963 12.0625 1.9375 C11.21236328 1.92912109 10.36222656 1.92074219 9.48632812 1.91210938 C8.67744141 1.90888672 7.86855469 1.90566406 7.03515625 1.90234375 C6.2862915 1.89710693 5.53742676 1.89187012 4.76586914 1.88647461 C2.97332261 1.80658248 2.97332261 1.80658248 2 3 C1.76298761 5.85877909 1.57780818 8.69883297 1.4375 11.5625 C1.39431641 12.36880859 1.35113281 13.17511719 1.30664062 14.00585938 C1.20024738 16.00368805 1.09959112 18.0018207 1 20 C0.67 20 0.34 20 0 20 C0 13.4 0 6.8 0 0 Z " fill="#7D90A6" transform="translate(946,717)"/>
<path d="M0 0 C-3.35229243 2.23486162 -6.37817072 2.91843802 -10.25 3.6875 C-11.53390625 3.95949219 -12.8178125 4.23148438 -14.140625 4.51171875 C-18.19081889 5.02414207 -21.03430892 4.76539893 -25 4 C-21.84483625 2.02802266 -18.88324184 1.65854217 -15.22265625 1.2890625 C-12.10817557 0.8840158 -9.11298737 0.10161179 -6.078125 -0.6953125 C-3.7627526 -1.03478439 -2.21202897 -0.70745071 0 0 Z " fill="#3B598C" transform="translate(441,1116)"/>
<path d="M0 0 C2 3 2 3 1.86328125 4.98046875 C0.72976766 9.5225622 -0.61207399 13.84993432 -2.3359375 18.203125 C-3.15929687 20.43103859 -3.63379534 22.65629015 -4 25 C-4.66 24.34 -5.32 23.68 -6 23 C-5.62563314 17.60231056 -4.10551023 12.66932123 -2.4375 7.5625 C-2.20353516 6.83095703 -1.96957031 6.09941406 -1.72851562 5.34570312 C-1.15732778 3.56219821 -0.57936877 1.78086417 0 0 Z " fill="#638BB1" transform="translate(212,858)"/>
<path d="M0 0 C0.66 0.33 1.32 0.66 2 1 C-1.32573113 7.320032 -4.75251481 13.26015515 -9 19 C-9.556875 19.94875 -10.11375 20.8975 -10.6875 21.875 C-12 24 -12 24 -14 25 C-12.68071914 21.48283007 -11.12651609 18.34691482 -9.1796875 15.13671875 C-8.37724609 13.80737305 -8.37724609 13.80737305 -7.55859375 12.45117188 C-6.72521484 11.0831543 -6.72521484 11.0831543 -5.875 9.6875 C-5.31167969 8.75615234 -4.74835938 7.82480469 -4.16796875 6.86523438 C-2.7819554 4.57478858 -1.39254372 2.28647924 0 0 Z " fill="#86B7C6" transform="translate(261,772)"/>
<path d="M0 0 C0.66 0 1.32 0 2 0 C0.48792023 4.19151647 -1.5861754 7.78374185 -3.9375 11.5625 C-4.97197266 13.23505859 -4.97197266 13.23505859 -6.02734375 14.94140625 C-7.6020502 17.38298081 -9.21479143 19.71112757 -11 22 C-10.55083893 16.4995044 -9.2435476 13.23683025 -6.0625 8.75 C-5.35222656 7.73421875 -4.64195312 6.7184375 -3.91015625 5.671875 C-3.27980469 4.79015625 -2.64945312 3.9084375 -2 3 C-1.34 2.01 -0.68 1.02 0 0 Z " fill="#445E80" transform="translate(324,918)"/>
<path d="M0 0 C0.66 0 1.32 0 2 0 C0.38774072 4.50739153 -1.9061939 8.42566313 -4.375 12.5 C-4.76171875 13.15097656 -5.1484375 13.80195312 -5.546875 14.47265625 C-7.79754937 18.21119254 -10.18057092 21.6527326 -13 25 C-12.39301257 20.87248551 -10.96189209 17.6678852 -9 14 C-8.34 14 -7.68 14 -7 14 C-6.8453125 13.195625 -6.8453125 13.195625 -6.6875 12.375 C-5.81907303 9.37497956 -4.44379704 6.7620465 -3 4 C-2.34 4 -1.68 4 -1 4 C-0.67 2.68 -0.34 1.36 0 0 Z " fill="#E4F7FB" transform="translate(236,809)"/>
<path d="M0 0 C0.33 0 0.66 0 1 0 C1.16423372 10.62044749 1.20511005 20.12713293 -3 30 C-3.92921998 26.98024799 -4.00601079 24.80433368 -3.4765625 21.69921875 C-3.3425 20.88646484 -3.2084375 20.07371094 -3.0703125 19.23632812 C-2.92335938 18.39521484 -2.77640625 17.55410156 -2.625 16.6875 C-2.34594678 15.0248079 -2.06729447 13.36204847 -1.7890625 11.69921875 C-1.6540332 10.90563965 -1.51900391 10.11206055 -1.37988281 9.29443359 C-0.86798289 6.20263704 -0.42734324 3.10452298 0 0 Z " fill="#DDF7F3" transform="translate(515,702)"/>
<path d="M0 0 C0.99 0.495 0.99 0.495 2 1 C1.97679687 1.54785156 1.95359375 2.09570312 1.9296875 2.66015625 C1.62829711 15.6728247 1.62829711 15.6728247 5 28 C4.72057545 29.67654729 4.39171753 31.34608154 4 33 C2.34477603 30.06482551 1.70079936 27.7250642 1.4375 24.375 C1.18115456 21.06333997 1.18115456 21.06333997 0 18 C-0.08308638 16.62451844 -0.10736016 15.24514204 -0.09765625 13.8671875 C-0.09443359 13.06152344 -0.09121094 12.25585938 -0.08789062 11.42578125 C-0.07951172 10.58402344 -0.07113281 9.74226562 -0.0625 8.875 C-0.05798828 8.02550781 -0.05347656 7.17601562 -0.04882812 6.30078125 C-0.03702874 4.20049091 -0.01909306 2.1002367 0 0 Z " fill="#2A4E8A" transform="translate(247,979)"/>
<path d="M0 0 C0.66 0.66 1.32 1.32 2 2 C-2.95 6.95 -7.9 11.9 -13 17 C-13.66 16.67 -14.32 16.34 -15 16 C-13.7607016 12.2821048 -12.28718934 11.45770911 -9.1875 9.125 C-5.54184767 6.37864448 -2.73664887 3.66162342 0 0 Z " fill="#537996" transform="translate(375,862)"/>
<path d="M0 0 C2.97 0.33 5.94 0.66 9 1 C9.33 1.99 9.66 2.98 10 4 C8.35 4 6.7 4 5 4 C5.474375 4.391875 5.94875 4.78375 6.4375 5.1875 C8.35179633 7.40808374 8.61266988 9.13375709 9 12 C5.49681559 10.34059686 4.21958207 9.57784756 2.8125 5.875 C2.544375 4.92625 2.27625 3.9775 2 3 C1.34 2.67 0.68 2.34 0 2 C0 1.34 0 0.68 0 0 Z " fill="#CAEAE9" transform="translate(260,690)"/>
<path d="M0 0 C0.33 0.66 0.66 1.32 1 2 C-0.99436969 5.81760535 -3.54230597 9.26412414 -6.0625 12.75 C-6.75472656 13.71421875 -7.44695312 14.6784375 -8.16015625 15.671875 C-10 18 -10 18 -12 19 C-11.731875 18.505 -11.46375 18.01 -11.1875 17.5 C-9.85334964 14.6912624 -8.81603416 11.8323576 -7.78125 8.90234375 C-7 7 -7 7 -5 4 C-4.01 3.67 -3.02 3.34 -2 3 C-1.34 2.01 -0.68 1.02 0 0 Z " fill="#BEE5DC" transform="translate(417,634)"/>
<path d="M0 0 C0.99 0.33 1.98 0.66 3 1 C-2.66666667 6.66666667 -8.33333333 12.33333333 -14 18 C-13.40300869 14.66864109 -12.27987719 12.78724333 -10.0625 10.25 C-9.53785156 9.63640625 -9.01320313 9.0228125 -8.47265625 8.390625 C-7 7 -7 7 -5 7 C-4.731875 6.401875 -4.46375 5.80375 -4.1875 5.1875 C-3.01506533 3.02775192 -1.80630718 1.64209744 0 0 Z " fill="#E1F6F8" transform="translate(334,726)"/>
<path d="M0 0 C6.27 0 12.54 0 19 0 C19 0.33 19 0.66 19 1 C11.08 1.495 11.08 1.495 3 2 C1.99105836 6.03576656 1.88696304 9.63706929 1.9375 13.75 C1.94201172 14.44738281 1.94652344 15.14476562 1.95117188 15.86328125 C1.9628998 17.57555803 1.98083347 19.28779033 2 21 C1.34 21.33 0.68 21.66 0 22 C0 14.74 0 7.48 0 0 Z " fill="#8193A8" transform="translate(720,717)"/>
<path d="M0 0 C5.62900409 5.11727644 11.22181345 11.85396935 14 19 C13.67 19.99 13.34 20.98 13 22 C12.34 22 11.68 22 11 22 C10.62488281 21.05898438 10.24976563 20.11796875 9.86328125 19.1484375 C7.24775359 12.73584374 4.81271481 7.09581568 0 2 C0 1.34 0 0.68 0 0 Z " fill="#B0E0C4" transform="translate(474,553)"/>
<path d="M0 0 C0 3 0 3 -1.04296875 4.6328125 C-4.0140911 6.70844688 -6.73080707 6.64118028 -10.3125 6.875 C-11.60800781 6.97554687 -12.90351563 7.07609375 -14.23828125 7.1796875 C-18.27685934 6.98677515 -20.5623928 6.0572347 -24 4 C-23.67 3.34 -23.34 2.68 -23 2 C-22.34 2.33 -21.68 2.66 -21 3 C-13.09945589 5.6335147 -7.25583783 3.33054851 0 0 Z " fill="#57818E" transform="translate(523,822)"/>
<path d="M0 0 C0.33 0 0.66 0 1 0 C1.86718598 3.60116256 2.71649241 7.20630848 3.5625 10.8125 C3.80935547 11.83666016 4.05621094 12.86082031 4.31054688 13.91601562 C4.53935547 14.89892578 4.76816406 15.88183594 5.00390625 16.89453125 C5.32597046 18.25348511 5.32597046 18.25348511 5.65454102 19.63989258 C6 22 6 22 5 25 C4.67 23.02 4.34 21.04 4 19 C3.34 19 2.68 19 2 19 C0.04978464 12.53991163 -0.22262303 6.7281627 0 0 Z " fill="#3C4D6C" transform="translate(293,1037)"/>
<path d="M0 0 C0.66 0 1.32 0 2 0 C0.18633597 4.12764916 -2.49146618 7.62059205 -5.125 11.25 C-5.59292969 11.8996875 -6.06085938 12.549375 -6.54296875 13.21875 C-7.69274282 14.81435483 -8.84602566 16.40743025 -10 18 C-10.66 17.67 -11.32 17.34 -12 17 C-9.91288641 12.53755237 -6.99760604 8.88151551 -4 5 C-3.2575 4.01 -2.515 3.02 -1.75 2 C-1.1725 1.34 -0.595 0.68 0 0 Z " fill="#496788" transform="translate(337,901)"/>
<path d="M0 0 C0.66 0.66 1.32 1.32 2 2 C0.79192228 4.41615545 -0.41670889 6.83200098 -1.62890625 9.24609375 C-2.48279219 10.9611638 -3.32592614 12.68168281 -4.15234375 14.41015625 C-6.79032258 19.89516129 -6.79032258 19.89516129 -9 21 C-8.38367054 16.04001528 -6.20164371 12.06328034 -3.9375 7.6875 C-3.37192383 6.57665039 -3.37192383 6.57665039 -2.79492188 5.44335938 C-1.86871843 3.62612478 -0.93509371 1.81267596 0 0 Z " fill="#354B72" transform="translate(457,1062)"/>
<path d="M0 0 C0.33 0 0.66 0 1 0 C1.93990267 5.32377708 2.00772874 10.1803771 1.625 15.5625 C1.55925781 16.65594727 1.55925781 16.65594727 1.4921875 17.77148438 C1.22441653 21.90333913 0.7599499 25.92331963 0 30 C-0.66 30 -1.32 30 -2 30 C-1.33333333 20 -0.66666667 10 0 0 Z " fill="#2A416E" transform="translate(463,1020)"/>
<path d="M0 0 C0.66 0 1.32 0 2 0 C2.84334329 2.22582389 3.67478551 4.45496026 4.5 6.6875 C4.73847656 7.31333984 4.97695313 7.93917969 5.22265625 8.58398438 C6.5412725 12.18192299 7.29329235 15.16520253 7 19 C3.86322373 17.43161186 3.46255562 14.33319141 2.375 11.1875 C2.14554687 10.55779297 1.91609375 9.92808594 1.6796875 9.27929688 C0.50632841 5.9512873 0 3.57857128 0 0 Z " fill="#395377" transform="translate(448,964)"/>
<path d="M0 0 C0.66 0.66 1.32 1.32 2 2 C1.03900391 2.94359375 1.03900391 2.94359375 0.05859375 3.90625 C-4.70544346 8.62058787 -9.32193368 13.36298326 -13.625 18.50390625 C-15 20 -15 20 -17 21 C-15.36672452 16.99367132 -12.55715678 14.15283892 -9.625 11.0625 C-6.25584872 7.48165071 -3.02132801 3.88763296 0 0 Z " fill="#9FD0CB" transform="translate(400,658)"/>
<path d="M0 0 C0.33 0.99 0.66 1.98 1 3 C-8.22551253 11.6309795 -8.22551253 11.6309795 -14 14 C-12.89508496 10.68525488 -12.4765235 10.40471949 -9.6875 8.625 C-6.47819976 6.45477648 -4.33537876 4.11383835 -2 1 C-1.34 0.67 -0.68 0.34 0 0 Z " fill="#7C94AC" transform="translate(953,829)"/>
<path d="M0 0 C0 3 0 3 -2.3359375 5.69921875 C-3.34119508 6.70314662 -4.35458968 7.6989775 -5.375 8.6875 C-5.88289063 9.19861328 -6.39078125 9.70972656 -6.9140625 10.23632812 C-10.73300859 14 -10.73300859 14 -13 14 C-11.47238013 10.37190281 -9.29392861 8.05653702 -6.5 5.3125 C-5.7059375 4.52488281 -4.911875 3.73726562 -4.09375 2.92578125 C-2 1 -2 1 0 0 Z " fill="#23303F" transform="translate(1189,909)"/>
<path d="M0 0 C0.66 0.33 1.32 0.66 2 1 C-5.29840547 9.44646925 -5.29840547 9.44646925 -9 13 C-9.99 12.67 -10.98 12.34 -12 12 C-8 8 -4 4 0 0 Z " fill="#80B5BE" transform="translate(354,709)"/>
<path d="M0 0 C0 0.66 0 1.32 0 2 C0.66 2.33 1.32 2.66 2 3 C-2.55426184 5.66590937 -5.73946963 6.31563182 -11 6 C-11 5.34 -11 4.68 -11 4 C-9.5437455 3.32880451 -8.08492133 2.66318193 -6.625 2 C-5.81289063 1.62875 -5.00078125 1.2575 -4.1640625 0.875 C-2 0 -2 0 0 0 Z " fill="#2C4977" transform="translate(417,1112)"/>
<path d="M0 0 C0.66 0 1.32 0 2 0 C0.3383196 4.12417063 -2.62338018 7.06554039 -5.625 10.25 C-6.140625 10.80429687 -6.65625 11.35859375 -7.1875 11.9296875 C-8.45425035 13.2902712 -9.72657815 14.64565837 -11 16 C-11.33 15.34 -11.66 14.68 -12 14 C-11.52949219 13.46890625 -11.05898438 12.9378125 -10.57421875 12.390625 C-9.95160156 11.68421875 -9.32898438 10.9778125 -8.6875 10.25 C-7.76517578 9.20585938 -7.76517578 9.20585938 -6.82421875 8.140625 C-4.97083835 6.03021317 -4.97083835 6.03021317 -3.39453125 3.734375 C-2.93433594 3.16203125 -2.47414063 2.5896875 -2 2 C-1.34 2 -0.68 2 0 2 C0 1.34 0 0.68 0 0 Z " fill="#E8FCFB" transform="translate(395,661)"/>
<path d="M0 0 C0.66 0 1.32 0 2 0 C0.33374078 4.31993131 -1.67149238 8.38339976 -3.78125 12.5 C-4.98117381 14.96138218 -6.0148986 17.44603342 -7 20 C-7.66 19.01 -8.32 18.02 -9 17 C-6.03 11.39 -3.06 5.78 0 0 Z " fill="#3C5271" transform="translate(434,944)"/>
<path d="M0 0 C0 3 0 3 -2.01171875 5.41015625 C-2.89472656 6.28542969 -3.77773438 7.16070313 -4.6875 8.0625 C-5.55761719 8.94035156 -6.42773438 9.81820312 -7.32421875 10.72265625 C-9.87182974 12.89091494 -11.8409977 13.9925344 -15 15 C-10.45200375 9.40246616 -5.47668152 4.6856053 0 0 Z " fill="#DCEDF1" transform="translate(367,873)"/>
<path d="M0 0 C0.33 0 0.66 0 1 0 C1.508783 1.55966218 2.00663469 3.12289241 2.5 4.6875 C2.7784375 5.55761719 3.056875 6.42773438 3.34375 7.32421875 C3.99850805 9.99391677 4.11831495 12.26396684 4 15 C3.01 15 2.02 15 1 15 C0.63911385 12.68853911 0.28645809 10.37579171 -0.0625 8.0625 C-0.25972656 6.77472656 -0.45695313 5.48695313 -0.66015625 4.16015625 C-0.82837891 2.59587891 -0.82837891 2.59587891 -1 1 C-0.67 0.67 -0.34 0.34 0 0 Z " fill="#C9E9E9" transform="translate(592,800)"/>
<path d="M0 0 C0.66 0.66 1.32 1.32 2 2 C1.60167969 2.58007812 1.20335937 3.16015625 0.79296875 3.7578125 C-1.59548338 7.27947185 -3.84394839 10.68789678 -5.75 14.5 C-7 17 -7 17 -9 18 C-8.57811541 16.1838018 -8.13700835 14.37205927 -7.6875 12.5625 C-7.44386719 11.55316406 -7.20023437 10.54382813 -6.94921875 9.50390625 C-6.47935547 8.26447266 -6.47935547 8.26447266 -6 7 C-5.01 6.67 -4.02 6.34 -3 6 C-1.29144978 2.99992729 -1.29144978 2.99992729 0 0 Z " fill="#BDE6D8" transform="translate(427,616)"/>
<path d="M0 0 C3 1 3 1 4.6875 4.125 C6.14581407 7.79357134 6.24159551 11.05393993 6 15 C4.46812498 12.70218748 3.14015022 10.50377134 1.875 8.0625 C1.52179687 7.39347656 1.16859375 6.72445312 0.8046875 6.03515625 C0 4 0 4 0 0 Z " fill="#D1EFEC" transform="translate(581,774)"/>
<path d="M0 0 C0.66 0.33 1.32 0.66 2 1 C-2.29 5.29 -6.58 9.58 -11 14 C-11.66 13.34 -12.32 12.68 -13 12 C-12.48050781 11.55269531 -11.96101563 11.10539063 -11.42578125 10.64453125 C-7.47320346 7.21798969 -3.64172918 3.75553321 0 0 Z " fill="#628EA3" transform="translate(418,824)"/>
<path d="M0 0 C0.95272312 2.56007809 1.11623296 3.68898395 0.14453125 6.2890625 C-0.51482422 7.44535156 -0.51482422 7.44535156 -1.1875 8.625 C-1.61417969 9.40101563 -2.04085937 10.17703125 -2.48046875 10.9765625 C-4.14183581 13.18887134 -5.45726609 13.9872623 -8 15 C-2.81321185 4.44191344 -2.81321185 4.44191344 0 0 Z " fill="#74A2BC" transform="translate(234,815)"/>
<path d="M0 0 C0 3 0 3 -1.6796875 5.04296875 C-2.76636719 6.10451172 -2.76636719 6.10451172 -3.875 7.1875 C-4.95394531 8.26064453 -4.95394531 8.26064453 -6.0546875 9.35546875 C-8 11 -8 11 -10 11 C-8.55218207 7.55571735 -6.72305391 5.63869038 -3.875 3.25 C-3.15054688 2.63640625 -2.42609375 2.0228125 -1.6796875 1.390625 C-0.84824219 0.70226562 -0.84824219 0.70226562 0 0 Z " fill="#253040" transform="translate(877,910)"/>
<path d="M0 0 C7.50769231 -0.36923077 7.50769231 -0.36923077 10 1.5 C10.495 2.2425 10.495 2.2425 11 3 C10.67 3.66 10.34 4.32 10 5 C8.02 4.34 6.04 3.68 4 3 C4 3.66 4 4.32 4 5 C3.34 5 2.68 5 2 5 C1.34 3.35 0.68 1.7 0 0 Z " fill="#D7F2E6" transform="translate(424,519)"/>
<path d="M0 0 C0.66 0.33 1.32 0.66 2 1 C2.33 1.99 2.66 2.98 3 4 C3.99 4.66 4.98 5.32 6 6 C6 6.66 6 7.32 6 8 C6.66 8 7.32 8 8 8 C8 8.66 8 9.32 8 10 C8.66 10 9.32 10 10 10 C10 10.66 10 11.32 10 12 C6.78475695 10.59155282 4.67816132 8.89655214 2.25 6.375 C1.63640625 5.74335937 1.0228125 5.11171875 0.390625 4.4609375 C-0.06828125 3.97882813 -0.5271875 3.49671875 -1 3 C-0.67 2.01 -0.34 1.02 0 0 Z " fill="#2F4C83" transform="translate(255,1055)"/>
<path d="M0 0 C1 2 1 2 -0.1875 5.6875 C-1.77263208 9.70170021 -3.77041513 13.30965263 -6 17 C-6.66 16.67 -7.32 16.34 -8 16 C-5.36 10.72 -2.72 5.44 0 0 Z " fill="#93C2CC" transform="translate(269,755)"/>
<path d="M0 0 C1.13864162 3.41592487 0.84292788 4.21442309 -0.3125 7.5 C-0.57675781 8.2734375 -0.84101563 9.046875 -1.11328125 9.84375 C-2 12 -2 12 -4 15 C-3.63495936 9.33557626 -2.9445679 4.99296295 0 0 Z " fill="#598198" transform="translate(416,880)"/>
<path d="M0 0 C2.31 0.33 4.62 0.66 7 1 C7.66 2.65 8.32 4.3 9 6 C7.68 5.34 6.36 4.68 5 4 C4.01 4.66 3.02 5.32 2 6 C1.34 4.02 0.68 2.04 0 0 Z " fill="#CEEDE4" transform="translate(540,722)"/>
<path d="M0 0 C0.66 0 1.32 0 2 0 C2 0.99 2 1.98 2 3 C2.66 3 3.32 3 4 3 C7.10096154 8.45769231 7.10096154 8.45769231 6.58984375 11.203125 C6.39519531 11.79609375 6.20054687 12.3890625 6 13 C4.99193149 11.40089132 3.99379615 9.79551738 3 8.1875 C2.443125 7.29417969 1.88625 6.40085937 1.3125 5.48046875 C0 3 0 3 0 0 Z " fill="#CEEFDC" transform="translate(488,572)"/>
<path d="M0 0 C0.33 0 0.66 0 1 0 C1.10251672 5.12583611 1.03590199 9.94997778 0 15 C-1.86122475 11.87656536 -2.1853192 9.9616974 -1.6875 6.375 C-1.58824219 5.59898437 -1.48898438 4.82296875 -1.38671875 4.0234375 C-1 2 -1 2 0 0 Z " fill="#527BA8" transform="translate(206,881)"/>
<path d="M0 0 C2 3 2 3 1.828125 5.12109375 C1.63734375 5.88550781 1.4465625 6.64992188 1.25 7.4375 C1.06953125 8.19933594 0.8890625 8.96117187 0.703125 9.74609375 C0.00526654 11.9831178 -0.89215546 13.93922138 -2 16 C-3.3805087 12.23331402 -2.59568159 9.55210827 -1.5625 5.75 C-1.27503906 4.67234375 -0.98757813 3.5946875 -0.69140625 2.484375 C-0.46324219 1.66453125 -0.23507812 0.8446875 0 0 Z " fill="#DEF0F8" transform="translate(597,947)"/>
<path d="M0 0 C0.99 0.33 1.98 0.66 3 1 C0.03 3.97 -2.94 6.94 -6 10 C-6 6.41087588 -5.33563446 5.89142971 -3 3.3125 C-2.443125 2.68988281 -1.88625 2.06726563 -1.3125 1.42578125 C-0.879375 0.95527344 -0.44625 0.48476563 0 0 Z " fill="#E8FCFC" transform="translate(368,691)"/>
<path d="M0 0 C0.66 0.99 1.32 1.98 2 3 C1.525625 3.5775 1.05125 4.155 0.5625 4.75 C-0.97151267 6.95897824 -1.4015792 8.43533943 -2 11 C-2.66 11.66 -3.32 12.32 -4 13 C-3.719172 11.01926635 -3.42503386 9.04041552 -3.125 7.0625 C-2.96257812 5.96035156 -2.80015625 4.85820313 -2.6328125 3.72265625 C-2.42398437 2.82417969 -2.21515625 1.92570313 -2 1 C-1.34 0.67 -0.68 0.34 0 0 Z " fill="#C6EBDB" transform="translate(432,603)"/>
<path d="M0 0 C0.66 0.66 1.32 1.32 2 2 C0.20991533 2.22151549 -1.58218162 2.42682213 -3.375 2.625 C-4.37273437 2.74101563 -5.37046875 2.85703125 -6.3984375 2.9765625 C-7.25695312 2.98429687 -8.11546875 2.99203125 -9 3 C-9.66 2.34 -10.32 1.68 -11 1 C-7.31620978 -0.17881287 -3.84458427 -0.21358801 0 0 Z " fill="#446191" transform="translate(427,1118)"/>
<path d="M0 0 C3.875 1.75 3.875 1.75 5 4 C5.04022391 6.3329866 5.04320247 8.66706666 5 11 C4.34 10.67 3.68 10.34 3 10 C2.59270772 7.67843403 2.25561323 5.3431213 2 3 C1.34 3 0.68 3 0 3 C0 2.01 0 1.02 0 0 Z " fill="#C7E8E8" transform="translate(304,726)"/>
<path d="M0 0 C0.66 0 1.32 0 2 0 C0.63629701 2.99220268 -0.94908083 5.29026529 -3.125 7.75 C-3.93324219 8.67039062 -3.93324219 8.67039062 -4.7578125 9.609375 C-5.16773438 10.06828125 -5.57765625 10.5271875 -6 11 C-6.33 10.01 -6.66 9.02 -7 8 C-6.67 7.34 -6.34 6.68 -6 6 C-5.34 6 -4.68 6 -4 6 C-4 5.34 -4 4.68 -4 4 C-3.34 4 -2.68 4 -2 4 C-1.34 2.68 -0.68 1.36 0 0 Z " fill="#E8FCFB" transform="translate(381,677)"/>
<path d="M0 0 C2.92965912 2.92965912 3.94133569 5.680053 4.125 9.8125 C4.08375 10.534375 4.0425 11.25625 4 12 C0.73060194 8.41420857 -0.6675012 5.87664905 -1 1 C-0.67 0.67 -0.34 0.34 0 0 Z " fill="#CEEFDE" transform="translate(496,584)"/>
<path d="M0 0 C0.99 0.33 1.98 0.66 3 1 C1.90536178 2.17561146 0.79892814 3.3402489 -0.3125 4.5 C-0.92738281 5.1496875 -1.54226563 5.799375 -2.17578125 6.46875 C-4 8 -4 8 -7 8 C-7 7.34 -7 6.68 -7 6 C-5.33720673 4.9935725 -3.67016516 3.99414593 -2 3 C-1.34 2.01 -0.68 1.02 0 0 Z " fill="#628DA2" transform="translate(401,839)"/>
<path d="M0 0 C0.33 0.99 0.66 1.98 1 3 C-0.65 4.65 -2.3 6.3 -4 8 C-4.99 7.67 -5.98 7.34 -7 7 C-4.69 4.69 -2.38 2.38 0 0 Z " fill="#97C9C8" transform="translate(382,679)"/>
<path d="M0 0 C0 0.66 0 1.32 0 2 C-2.75078884 2.91692961 -4.35948913 3.10886083 -7.1875 3.0625 C-9.0746875 3.0315625 -9.0746875 3.0315625 -11 3 C-6.9903514 0.32690093 -4.82843714 0 0 0 Z " fill="#304769" transform="translate(402,1119)"/>
<path d="M0 0 C-1.39332574 3.36720387 -2.9789286 4.9859524 -6 7 C-6 5.68 -6 4.36 -6 3 C-2.78571429 0 -2.78571429 0 0 0 Z " fill="#5E829C" transform="translate(367,872)"/>
<path d="M0 0 C0.99 0.33 1.98 0.66 3 1 C1.02 3.31 -0.96 5.62 -3 8 C-3 4.42424104 -1.91159393 2.94704065 0 0 Z " fill="#8AC3C5" transform="translate(526,819)"/>
<path d="M0 0 C0.33 0.99 0.66 1.98 1 3 C-1.97 5.475 -1.97 5.475 -5 8 C-5.66 7.67 -6.32 7.34 -7 7 C-4.69 4.69 -2.38 2.38 0 0 Z " fill="#DDF1F5" transform="translate(428,816)"/>
<path d="M0 0 C0.66 0 1.32 0 2 0 C0.6062718 4.43458973 -1.60582235 6.87378374 -5 10 C-4.38722388 7.03824877 -3.74627478 5.61941217 -2 3 C-1.34 3 -0.68 3 0 3 C0 2.01 0 1.02 0 0 Z " fill="#E7FCF9" transform="translate(407,645)"/>
<path d="M0 0 C2.26171875 0.6796875 2.26171875 0.6796875 4.6875 1.875 C5.49574219 2.26429687 6.30398438 2.65359375 7.13671875 3.0546875 C7.75160156 3.36664062 8.36648438 3.67859375 9 4 C5.52128379 5.15957207 4.65780355 4.77456651 1.3125 3.5625 C0.50425781 3.27503906 -0.30398438 2.98757813 -1.13671875 2.69140625 C-1.75160156 2.46324219 -2.36648438 2.23507812 -3 2 C-2.01 1.34 -1.02 0.68 0 0 Z " fill="#697684" transform="translate(338,1111)"/>
<path d="M0 0 C0 0.66 0 1.32 0 2 C-2.64 2.66 -5.28 3.32 -8 4 C-7.67 3.01 -7.34 2.02 -7 1 C-4.52260646 0.09162237 -2.66420516 0 0 0 Z " fill="#2F3A48" transform="translate(1248,1008)"/>
<path d="M0 0 C0.33 0.99 0.66 1.98 1 3 C-0.65 4.65 -2.3 6.3 -4 8 C-4.66 7.67 -5.32 7.34 -6 7 C-4.02 4.69 -2.04 2.38 0 0 Z " fill="#DCECF3" transform="translate(344,896)"/>
</svg>
